<svg xmlns="http://www.w3.org/2000/svg" width="1600" height="850" viewBox="0 0 1600 850">
  <defs>
    <marker id="arrowGray" markerWidth="9" markerHeight="9" refX="8" refY="4.5" orient="auto"><path d="M0 0 L9 4.5 L0 9 Z" fill="#7A869A"/></marker>
    <marker id="arrowBlue" markerWidth="9" markerHeight="9" refX="8" refY="4.5" orient="auto"><path d="M0 0 L9 4.5 L0 9 Z" fill="#0072B2"/></marker>
    <marker id="arrowGreen" markerWidth="9" markerHeight="9" refX="8" refY="4.5" orient="auto"><path d="M0 0 L9 4.5 L0 9 Z" fill="#009E73"/></marker>

    <style>
      text{font-family:Inter,Arial,Helvetica,sans-serif}
      .title{font-size:34px;font-weight:700;fill:#1B1F23}
      .subtitle{font-size:15px;font-weight:400;fill:#5B6472}
      .label{font-size:15px;font-weight:650;fill:#1B1F23}
      .body{font-size:13px;font-weight:400;fill:#5B6472}
      .small{font-size:11px;font-weight:400;fill:#5B6472}
      .tiny{font-size:9px;font-weight:500;fill:#5B6472}
      .panel{fill:#fff;stroke:#C9D1D9;stroke-width:1.2}
      .soft{fill:#F7F9FB;stroke:#C9D1D9;stroke-width:1}
      .grid{stroke:#E6EBF0;stroke-width:1}
      .axis{stroke:#1B1F23;stroke-width:1.1}
      .wire{fill:none;stroke:#7A869A;stroke-width:1.8;marker-end:url(#arrowGray)}
      .wireBlue{fill:none;stroke:#0072B2;stroke-width:2;marker-end:url(#arrowBlue)}
      .wireGreen{fill:none;stroke:#009E73;stroke-width:2;marker-end:url(#arrowGreen)}
      .dash{stroke-dasharray:6 6}
    </style>

  </defs>
  <rect width="1600" height="850" fill="#FFFFFF"/>
  <text class="title" x="64" y="58">Recessed-Base Training Curve</text>
  <text class="subtitle" x="66" y="86">Archived moving-box, recessed-base training snapshot used for replay documentation.</text>

  <rect class="soft" x="58.0" y="120.0" width="1484.0" height="670.0" rx="10.0"/>
  <text class="label" x="110.0" y="190.0" text-anchor="start">A. Mean reward</text>
<line class="grid" x1="110.0" y1="210.0" x2="730.0" y2="210.0"/>
<line class="grid" x1="110.0" y1="257.5" x2="730.0" y2="257.5"/>
<line class="grid" x1="110.0" y1="305.0" x2="730.0" y2="305.0"/>
<line class="grid" x1="110.0" y1="352.5" x2="730.0" y2="352.5"/>
<line class="grid" x1="110.0" y1="400.0" x2="730.0" y2="400.0"/>
<line class="axis" x1="110.0" y1="400.0" x2="730.0" y2="400.0"/>
<line class="axis" x1="110.0" y1="210.0" x2="110.0" y2="400.0"/>
<polyline fill="none" stroke="#0072B2" stroke-width="2.6" stroke-linecap="round" stroke-linejoin="round" points="110.0,400.0 127.7,210.0 145.4,346.4 163.1,269.7 180.9,280.4 198.6,319.8 216.3,257.1 234.0,299.0 251.7,275.9 269.4,277.9 287.1,295.7 304.9,275.7 322.6,276.4 340.3,295.6 358.0,267.2 375.7,294.9 393.4,298.6 411.1,273.6 428.9,287.2 446.6,282.6 464.3,292.9 482.0,307.0 499.7,267.6 517.4,297.5 535.1,283.5 552.9,267.9 570.6,285.9 588.3,280.5 606.0,293.4 623.7,290.2 641.4,302.1 659.1,287.7 676.9,278.8 694.6,284.0 712.3,283.2 730.0,285.5"/>
<circle cx="730.0" cy="285.5" r="4.2" fill="#0072B2"/>
<text class="tiny" x="110.0" y="420.0" text-anchor="start">6,144</text>
<text class="tiny" x="730.0" y="420.0" text-anchor="end">221,184</text>
<text class="tiny" x="116.0" y="222.0" text-anchor="start">0.53</text>
<text class="tiny" x="116.0" y="394.0" text-anchor="start">-0.0152</text>
  <text class="label" x="870.0" y="190.0" text-anchor="start">B. Terminal rate</text>
<line class="grid" x1="870.0" y1="210.0" x2="1430.0" y2="210.0"/>
<line class="grid" x1="870.0" y1="257.5" x2="1430.0" y2="257.5"/>
<line class="grid" x1="870.0" y1="305.0" x2="1430.0" y2="305.0"/>
<line class="grid" x1="870.0" y1="352.5" x2="1430.0" y2="352.5"/>
<line class="grid" x1="870.0" y1="400.0" x2="1430.0" y2="400.0"/>
<line class="axis" x1="870.0" y1="400.0" x2="1430.0" y2="400.0"/>
<line class="axis" x1="870.0" y1="210.0" x2="870.0" y2="400.0"/>
<polyline fill="none" stroke="#009E73" stroke-width="2.6" stroke-linecap="round" stroke-linejoin="round" points="870.0,400.0 886.0,270.1 902.0,369.1 918.0,263.9 934.0,307.2 950.0,332.0 966.0,294.9 982.0,344.3 998.0,282.5 1014.0,319.6 1030.0,332.0 1046.0,301.0 1062.0,294.9 1078.0,332.0 1094.0,294.9 1110.0,325.8 1126.0,301.0 1142.0,313.4 1158.0,313.4 1174.0,301.0 1190.0,313.4 1206.0,325.8 1222.0,282.5 1238.0,325.8 1254.0,313.4 1270.0,313.4 1286.0,313.4 1302.0,301.0 1318.0,313.4 1334.0,301.0 1350.0,313.4 1366.0,307.2 1382.0,307.2 1398.0,332.0 1414.0,307.2 1430.0,294.9"/>
<circle cx="1430.0" cy="294.9" r="4.2" fill="#009E73"/>
<text class="tiny" x="870.0" y="420.0" text-anchor="start">6,144</text>
<text class="tiny" x="1430.0" y="420.0" text-anchor="end">221,184</text>
<text class="tiny" x="876.0" y="222.0" text-anchor="start">0.01</text>
<text class="tiny" x="876.0" y="394.0" text-anchor="start">0</text>
  <text class="label" x="110.0" y="515.0" text-anchor="start">C. Critic explained variance</text>
<line class="grid" x1="110.0" y1="535.0" x2="730.0" y2="535.0"/>
<line class="grid" x1="110.0" y1="575.0" x2="730.0" y2="575.0"/>
<line class="grid" x1="110.0" y1="615.0" x2="730.0" y2="615.0"/>
<line class="grid" x1="110.0" y1="655.0" x2="730.0" y2="655.0"/>
<line class="grid" x1="110.0" y1="695.0" x2="730.0" y2="695.0"/>
<line class="axis" x1="110.0" y1="695.0" x2="730.0" y2="695.0"/>
<line class="axis" x1="110.0" y1="535.0" x2="110.0" y2="695.0"/>
<polyline fill="none" stroke="#CC79A7" stroke-width="2.6" stroke-linecap="round" stroke-linejoin="round" points="110.0,679.8 127.7,695.0 145.4,687.7 163.1,693.5 180.9,691.0 198.6,686.1 216.3,686.8 234.0,684.2 251.7,686.3 269.4,675.8 287.1,678.3 304.9,675.3 322.6,671.0 340.3,668.2 358.0,663.2 375.7,672.6 393.4,658.4 411.1,638.2 428.9,669.9 446.6,648.8 464.3,628.8 482.0,636.5 499.7,647.8 517.4,616.8 535.1,645.1 552.9,628.7 570.6,613.0 588.3,623.7 606.0,609.5 623.7,612.0 641.4,535.0 659.1,611.5 676.9,592.4 694.6,641.6 712.3,605.8 730.0,598.2"/>
<circle cx="730.0" cy="598.2" r="4.2" fill="#CC79A7"/>
<text class="tiny" x="110.0" y="715.0" text-anchor="start">6,144</text>
<text class="tiny" x="730.0" y="715.0" text-anchor="end">221,184</text>
<text class="tiny" x="116.0" y="547.0" text-anchor="start">0.128</text>
<text class="tiny" x="116.0" y="689.0" text-anchor="start">0.00166</text>
  <text class="label" x="870.0" y="515.0" text-anchor="start">D. Approximate KL</text>
<line class="grid" x1="870.0" y1="535.0" x2="1430.0" y2="535.0"/>
<line class="grid" x1="870.0" y1="575.0" x2="1430.0" y2="575.0"/>
<line class="grid" x1="870.0" y1="615.0" x2="1430.0" y2="615.0"/>
<line class="grid" x1="870.0" y1="655.0" x2="1430.0" y2="655.0"/>
<line class="grid" x1="870.0" y1="695.0" x2="1430.0" y2="695.0"/>
<line class="axis" x1="870.0" y1="695.0" x2="1430.0" y2="695.0"/>
<line class="axis" x1="870.0" y1="535.0" x2="870.0" y2="695.0"/>
<polyline fill="none" stroke="#D55E00" stroke-width="2.6" stroke-linecap="round" stroke-linejoin="round" points="870.0,535.0 886.0,584.8 902.0,689.8 918.0,655.2 934.0,678.9 950.0,661.7 966.0,666.5 982.0,684.0 998.0,687.5 1014.0,695.0 1030.0,689.0 1046.0,691.3 1062.0,688.6 1078.0,678.9 1094.0,686.9 1110.0,681.4 1126.0,686.0 1142.0,687.3 1158.0,666.3 1174.0,684.8 1190.0,686.5 1206.0,692.2 1222.0,671.0 1238.0,650.3 1254.0,683.8 1270.0,687.7 1286.0,691.7 1302.0,691.6 1318.0,687.2 1334.0,686.9 1350.0,689.7 1366.0,685.9 1382.0,692.3 1398.0,686.0 1414.0,687.4 1430.0,683.2"/>
<circle cx="1430.0" cy="683.2" r="4.2" fill="#D55E00"/>
<text class="tiny" x="870.0" y="715.0" text-anchor="start">6,144</text>
<text class="tiny" x="1430.0" y="715.0" text-anchor="end">221,184</text>
<text class="tiny" x="876.0" y="547.0" text-anchor="start">0.00938</text>
<text class="tiny" x="876.0" y="689.0" text-anchor="start">0.000474</text>
  <rect class="panel" x="110.0" y="735.0" width="1320.0" height="38.0" rx="4.0"/>
  <text class="body" x="135.0" y="760.0" text-anchor="start">final reward 0.3132 | speed 324 steps/s | device NVIDIA GeForce RTX 4090</text>

</svg>
