<svg xmlns="http://www.w3.org/2000/svg" width="1600" height="900" viewBox="0 0 1600 900">
<style>
.title{font:700 36px Arial, sans-serif;fill:#172033}.sub{font:18px Arial,sans-serif;fill:#667085}.h{font:700 22px Arial,sans-serif;fill:#172033}.txt{font:16px Arial,sans-serif;fill:#344054}.small{font:13px Arial,sans-serif;fill:#667085}.mono{font:13px Consolas,monospace;fill:#344054}
</style><rect width="100%" height="100%" fill="#FFFFFF"/>
<text x="70" y="70" class="title">Off-Axis Base-Rush MAPPO Training</text>
<text x="70" y="104" class="sub">Actual GPU run: 200,704 steps on RTX 4090, residual expert, 16 parallel environments.</text>
<rect x="82" y="136" width="656" height="312" rx="8" fill="#FFFFFF" stroke="#C8D2E0"/>
<text x="100" y="168" class="h">Mean Reward</text>
<line x1="100" y1="190.0" x2="720" y2="190.0" stroke="#D9E1EC"/>
<line x1="100" y1="247.5" x2="720" y2="247.5" stroke="#D9E1EC"/>
<line x1="100" y1="305.0" x2="720" y2="305.0" stroke="#D9E1EC"/>
<line x1="100" y1="362.5" x2="720" y2="362.5" stroke="#D9E1EC"/>
<line x1="100" y1="420.0" x2="720" y2="420.0" stroke="#D9E1EC"/>
<line x1="100" y1="420" x2="720" y2="420" stroke="#98A2B3"/>
<line x1="100" y1="190" x2="100" y2="420" stroke="#98A2B3"/>
<polyline points="100.0,366.1 112.9,289.2 125.8,322.6 138.8,226.4 151.7,223.5 164.6,228.2 177.5,307.0 190.4,358.3 203.3,295.2 216.2,367.2 229.2,353.5 242.1,338.7 255.0,347.0 267.9,372.1 280.8,269.3 293.8,240.3 306.7,204.5 319.6,248.4 332.5,225.6 345.4,190.0 358.3,249.0 371.2,286.7 384.2,314.9 397.1,356.0 410.0,328.1 422.9,420.0 435.8,393.2 448.8,360.0 461.7,392.4 474.6,355.9 487.5,349.7 500.4,312.2 513.3,307.2 526.2,295.6 539.2,336.2 552.1,360.0 565.0,299.7 577.9,418.5 590.8,347.0 603.8,356.3 616.7,296.8 629.6,291.6 642.5,354.7 655.4,386.4 668.3,367.0 681.2,316.7 694.2,364.5 707.1,257.4 720.0,296.7" fill="none" stroke="#16A34A" stroke-width="4" stroke-linecap="round" stroke-linejoin="round"/>
<rect x="842" y="136" width="656" height="312" rx="8" fill="#FFFFFF" stroke="#C8D2E0"/>
<text x="860" y="168" class="h">Episode Done Rate</text>
<line x1="860" y1="190.0" x2="1480" y2="190.0" stroke="#D9E1EC"/>
<line x1="860" y1="247.5" x2="1480" y2="247.5" stroke="#D9E1EC"/>
<line x1="860" y1="305.0" x2="1480" y2="305.0" stroke="#D9E1EC"/>
<line x1="860" y1="362.5" x2="1480" y2="362.5" stroke="#D9E1EC"/>
<line x1="860" y1="420.0" x2="1480" y2="420.0" stroke="#D9E1EC"/>
<line x1="860" y1="420" x2="1480" y2="420" stroke="#98A2B3"/>
<line x1="860" y1="190" x2="860" y2="420" stroke="#98A2B3"/>
<polyline points="860.0,420.0 872.9,282.0 885.8,305.0 898.8,213.0 911.7,213.0 924.6,236.0 937.5,305.0 950.4,328.0 963.3,282.0 976.2,305.0 989.2,328.0 1002.1,259.0 1015.0,374.0 1027.9,305.0 1040.8,213.0 1053.8,259.0 1066.7,213.0 1079.6,259.0 1092.5,213.0 1105.4,236.0 1118.3,259.0 1131.2,259.0 1144.2,282.0 1157.1,305.0 1170.0,282.0 1182.9,374.0 1195.8,305.0 1208.8,282.0 1221.7,328.0 1234.6,305.0 1247.5,259.0 1260.4,282.0 1273.3,259.0 1286.2,236.0 1299.2,328.0 1312.1,305.0 1325.0,282.0 1337.9,351.0 1350.8,305.0 1363.8,282.0 1376.7,259.0 1389.6,259.0 1402.5,305.0 1415.4,351.0 1428.3,305.0 1441.2,259.0 1454.2,328.0 1467.1,190.0 1480.0,236.0" fill="none" stroke="#2563EB" stroke-width="4" stroke-linecap="round" stroke-linejoin="round"/>
<rect x="82" y="506" width="656" height="292" rx="8" fill="#FFFFFF" stroke="#C8D2E0"/>
<text x="100" y="538" class="h">Value Loss</text>
<line x1="100" y1="560.0" x2="720" y2="560.0" stroke="#D9E1EC"/>
<line x1="100" y1="612.5" x2="720" y2="612.5" stroke="#D9E1EC"/>
<line x1="100" y1="665.0" x2="720" y2="665.0" stroke="#D9E1EC"/>
<line x1="100" y1="717.5" x2="720" y2="717.5" stroke="#D9E1EC"/>
<line x1="100" y1="770.0" x2="720" y2="770.0" stroke="#D9E1EC"/>
<line x1="100" y1="770" x2="720" y2="770" stroke="#98A2B3"/>
<line x1="100" y1="560" x2="100" y2="770" stroke="#98A2B3"/>
<polyline points="100.0,770.0 112.9,634.6 125.8,656.2 138.8,562.3 151.7,560.0 164.6,587.8 177.5,654.0 190.4,685.2 203.3,654.8 216.2,660.1 229.2,685.8 242.1,610.9 255.0,725.6 267.9,655.6 280.8,588.7 293.8,653.2 306.7,580.9 319.6,617.9 332.5,570.8 345.4,589.7 358.3,610.8 371.2,634.0 384.2,643.7 397.1,661.9 410.0,637.0 422.9,727.5 435.8,691.7 448.8,663.1 461.7,686.6 474.6,676.0 487.5,616.2 500.4,655.2 513.3,616.1 526.2,626.8 539.2,682.0 552.1,692.9 565.0,644.5 577.9,703.8 590.8,660.6 603.8,646.7 616.7,646.2 629.6,621.3 642.5,663.6 655.4,709.1 668.3,702.5 681.2,653.7 694.2,704.8 707.1,574.0 720.0,603.8" fill="none" stroke="#7C3AED" stroke-width="4" stroke-linecap="round" stroke-linejoin="round"/>
<rect x="842" y="506" width="656" height="292" rx="8" fill="#FFFFFF" stroke="#C8D2E0"/>
<text x="860" y="538" class="h">Approx KL</text>
<line x1="860" y1="560.0" x2="1480" y2="560.0" stroke="#D9E1EC"/>
<line x1="860" y1="612.5" x2="1480" y2="612.5" stroke="#D9E1EC"/>
<line x1="860" y1="665.0" x2="1480" y2="665.0" stroke="#D9E1EC"/>
<line x1="860" y1="717.5" x2="1480" y2="717.5" stroke="#D9E1EC"/>
<line x1="860" y1="770.0" x2="1480" y2="770.0" stroke="#D9E1EC"/>
<line x1="860" y1="770" x2="1480" y2="770" stroke="#98A2B3"/>
<line x1="860" y1="560" x2="860" y2="770" stroke="#98A2B3"/>
<polyline points="860.0,560.0 872.9,578.8 885.8,636.8 898.8,692.8 911.7,716.6 924.6,627.9 937.5,724.2 950.4,680.4 963.3,701.5 976.2,706.5 989.2,714.6 1002.1,711.2 1015.0,658.4 1027.9,627.5 1040.8,613.3 1053.8,711.6 1066.7,742.0 1079.6,748.1 1092.5,715.5 1105.4,724.4 1118.3,752.3 1131.2,751.6 1144.2,748.1 1157.1,751.6 1170.0,729.9 1182.9,726.9 1195.8,721.6 1208.8,755.9 1221.7,714.7 1234.6,688.8 1247.5,733.0 1260.4,711.6 1273.3,753.4 1286.2,755.1 1299.2,746.0 1312.1,719.0 1325.0,732.6 1337.9,748.4 1350.8,704.3 1363.8,749.5 1376.7,738.8 1389.6,767.8 1402.5,770.0 1415.4,752.8 1428.3,686.9 1441.2,734.0 1454.2,738.1 1467.1,734.5 1480.0,735.8" fill="none" stroke="#D92D20" stroke-width="4" stroke-linecap="round" stroke-linejoin="round"/>
<text x="70" y="852" class="small">Source: isaaclab_sim/output/rl/mappo_offaxis_base_ros2_gpu_seed121/training_curve.csv</text>
</svg>