<svg xmlns="http://www.w3.org/2000/svg" width="1700" height="980" viewBox="0 0 1700 980">
<style>
.title{font:700 40px Arial;fill:#1F2937}.sub{font:18px Arial;fill:#6B7280}.h{font:700 22px Arial;fill:#1F2937}.txt{font:16px Arial;fill:#6B7280}.big{font:700 30px Arial;fill:#1F2937}
</style>
<rect width="1700" height="980" fill="#FFFFFF"/>
<text x="76" y="76" class="title">Embodied Self-Play Evaluation Metrics</text>
<text x="76" y="112" class="sub">Actual outputs from 64 stochastic evaluation episodes and 16 strict replay audit episodes.</text>
<rect x="76" y="168" width="690" height="410" rx="8" fill="#FFFFFF" stroke="#D1D5DB"/>
<text x="112" y="216" class="h">Win / Safety Summary</text>
<rect x="132" y="424.3" width="110" height="113.7" rx="6" fill="#F2C94C" opacity="0.88"/>
<text x="187" y="578" class="txt" text-anchor="middle">Yellow win</text>
<text x="187" y="410.3" class="h" text-anchor="middle">40.6%</text>
<rect x="302" y="393.6" width="110" height="144.4" rx="6" fill="#2563EB" opacity="0.88"/>
<text x="357" y="578" class="txt" text-anchor="middle">Blue win</text>
<text x="357" y="379.6" class="h" text-anchor="middle">51.6%</text>
<rect x="472" y="516.1" width="110" height="21.9" rx="6" fill="#9CA3AF" opacity="0.88"/>
<text x="527" y="578" class="txt" text-anchor="middle">Draw/timeout</text>
<text x="527" y="502.1" class="h" text-anchor="middle">7.8%</text>
<rect x="642" y="258.0" width="110" height="280.0" rx="6" fill="#16A34A" opacity="0.88"/>
<text x="697" y="578" class="txt" text-anchor="middle">Own-fire safe</text>
<text x="697" y="244.0" class="h" text-anchor="middle">0 own</text>
<rect x="842" y="168" width="780" height="410" rx="8" fill="#FFFFFF" stroke="#D1D5DB"/>
<text x="878" y="216" class="h">Normal Targets Before Base</text>
<rect x="910" y="516.1" width="110" height="21.9" rx="6" fill="#9CA3AF" opacity="0.88"/>
<text x="965" y="578" class="txt" text-anchor="middle">0 normal</text>
<text x="965" y="502.1" class="h" text-anchor="middle">5</text><rect x="1040" y="279.9" width="110" height="258.1" rx="6" fill="#16A34A" opacity="0.88"/>
<text x="1095" y="578" class="txt" text-anchor="middle">1 normal</text>
<text x="1095" y="265.9" class="h" text-anchor="middle">59</text><rect x="1170" y="538.0" width="110" height="0.0" rx="6" fill="#16A34A" opacity="0.88"/>
<text x="1225" y="578" class="txt" text-anchor="middle">2 normal</text>
<text x="1225" y="524.0" class="h" text-anchor="middle">0</text><rect x="1300" y="538.0" width="110" height="0.0" rx="6" fill="#9CA3AF" opacity="0.88"/>
<text x="1355" y="578" class="txt" text-anchor="middle">3 normal</text>
<text x="1355" y="524.0" class="h" text-anchor="middle">0</text><rect x="1430" y="538.0" width="110" height="0.0" rx="6" fill="#9CA3AF" opacity="0.88"/>
<text x="1485" y="578" class="txt" text-anchor="middle">4 normal</text>
<text x="1485" y="524.0" class="h" text-anchor="middle">0</text>
<rect x="76" y="636" width="1546" height="210" rx="8" fill="#F9FAFB" stroke="#D1D5DB"/>
<text x="116" y="690" class="h">Measured Contract</text>
<text x="116" y="734" class="big">1.58</text><text x="212" y="734" class="txt">normal hits / episode</text>
<text x="480" y="734" class="big">0.922</text><text x="590" y="734" class="txt">base-hit wins / episode</text>
<text x="890" y="734" class="big">0</text><text x="930" y="734" class="txt">hard replay violations</text>
<text x="1210" y="734" class="big">0</text><text x="1250" y="734" class="txt">strict replay warnings</text>
<text x="116" y="794" class="txt">Laser rule: 5-50 cm outlet range, probabilistic accuracy by distance/lateral error, 0.80 s dwell before knockdown.</text>
<text x="76" y="910" class="txt">Sources: mappo_sensorfusion_embodied_balanced_eval64_stochastic.json; mappo_sensorfusion_embodied_balanced_strict16/strict_replay_summary.json</text>
</svg>