<svg xmlns="http://www.w3.org/2000/svg" width="1600" height="850" viewBox="0 0 1600 850">
  <defs>
    <marker id="arrowGray" markerWidth="9" markerHeight="9" refX="8" refY="4.5" orient="auto"><path d="M0 0 L9 4.5 L0 9 Z" fill="#7A869A"/></marker>
    <marker id="arrowBlue" markerWidth="9" markerHeight="9" refX="8" refY="4.5" orient="auto"><path d="M0 0 L9 4.5 L0 9 Z" fill="#0072B2"/></marker>
    <marker id="arrowGreen" markerWidth="9" markerHeight="9" refX="8" refY="4.5" orient="auto"><path d="M0 0 L9 4.5 L0 9 Z" fill="#009E73"/></marker>

    <style>
      text{font-family:Inter,Arial,Helvetica,sans-serif}
      .title{font-size:34px;font-weight:700;fill:#1B1F23}
      .subtitle{font-size:15px;font-weight:400;fill:#5B6472}
      .label{font-size:15px;font-weight:650;fill:#1B1F23}
      .body{font-size:13px;font-weight:400;fill:#5B6472}
      .small{font-size:11px;font-weight:400;fill:#5B6472}
      .tiny{font-size:9px;font-weight:500;fill:#5B6472}
      .panel{fill:#fff;stroke:#C9D1D9;stroke-width:1.2}
      .soft{fill:#F7F9FB;stroke:#C9D1D9;stroke-width:1}
      .grid{stroke:#E6EBF0;stroke-width:1}
      .axis{stroke:#1B1F23;stroke-width:1.1}
      .wire{fill:none;stroke:#7A869A;stroke-width:1.8;marker-end:url(#arrowGray)}
      .wireBlue{fill:none;stroke:#0072B2;stroke-width:2;marker-end:url(#arrowBlue)}
      .wireGreen{fill:none;stroke:#009E73;stroke-width:2;marker-end:url(#arrowGreen)}
      .dash{stroke-dasharray:6 6}
    </style>

  </defs>
  <rect width="1600" height="850" fill="#FFFFFF"/>
  <text class="title" x="64" y="58">Sensor-Fusion MAPPO Training</text>
  <text class="subtitle" x="66" y="86">Residual expert with domain randomization and action shielding; observation dim 46.</text>

  <rect class="soft" x="58.0" y="120.0" width="1484.0" height="670.0" rx="10.0"/>
  <text class="label" x="110.0" y="190.0" text-anchor="start">A. Mean reward</text>
<line class="grid" x1="110.0" y1="210.0" x2="730.0" y2="210.0"/>
<line class="grid" x1="110.0" y1="257.5" x2="730.0" y2="257.5"/>
<line class="grid" x1="110.0" y1="305.0" x2="730.0" y2="305.0"/>
<line class="grid" x1="110.0" y1="352.5" x2="730.0" y2="352.5"/>
<line class="grid" x1="110.0" y1="400.0" x2="730.0" y2="400.0"/>
<line class="axis" x1="110.0" y1="400.0" x2="730.0" y2="400.0"/>
<line class="axis" x1="110.0" y1="210.0" x2="110.0" y2="400.0"/>
<polyline fill="none" stroke="#0072B2" stroke-width="2.6" stroke-linecap="round" stroke-linejoin="round" points="110.0,400.0 127.7,210.0 145.4,311.0 163.1,240.7 180.9,292.2 198.6,275.5 216.3,262.1 234.0,279.4 251.7,280.6 269.4,259.8 287.1,315.9 304.9,264.4 322.6,295.9 340.3,283.1 358.0,311.1 375.7,266.4 393.4,270.7 411.1,293.7 428.9,275.1 446.6,284.6 464.3,284.6 482.0,295.0 499.7,259.3 517.4,291.3 535.1,253.1 552.9,277.8 570.6,267.0 588.3,275.7 606.0,283.5 623.7,282.1 641.4,275.0 659.1,289.5 676.9,267.9 694.6,291.5 712.3,235.5 730.0,309.3"/>
<circle cx="730.0" cy="309.3" r="4.2" fill="#0072B2"/>
<text class="tiny" x="110.0" y="420.0" text-anchor="start">6,144</text>
<text class="tiny" x="730.0" y="420.0" text-anchor="end">221,184</text>
<text class="tiny" x="116.0" y="222.0" text-anchor="start">0.458</text>
<text class="tiny" x="116.0" y="394.0" text-anchor="start">-0.021</text>
  <text class="label" x="870.0" y="190.0" text-anchor="start">B. Terminal rate</text>
<line class="grid" x1="870.0" y1="210.0" x2="1430.0" y2="210.0"/>
<line class="grid" x1="870.0" y1="257.5" x2="1430.0" y2="257.5"/>
<line class="grid" x1="870.0" y1="305.0" x2="1430.0" y2="305.0"/>
<line class="grid" x1="870.0" y1="352.5" x2="1430.0" y2="352.5"/>
<line class="grid" x1="870.0" y1="400.0" x2="1430.0" y2="400.0"/>
<line class="axis" x1="870.0" y1="400.0" x2="1430.0" y2="400.0"/>
<line class="axis" x1="870.0" y1="210.0" x2="870.0" y2="400.0"/>
<polyline fill="none" stroke="#009E73" stroke-width="2.6" stroke-linecap="round" stroke-linejoin="round" points="870.0,400.0 886.0,307.2 902.0,338.2 918.0,288.7 934.0,344.3 950.0,319.6 966.0,307.2 982.0,325.8 998.0,319.6 1014.0,319.6 1030.0,344.3 1046.0,319.6 1062.0,307.2 1078.0,313.4 1094.0,338.2 1110.0,313.4 1126.0,319.6 1142.0,325.8 1158.0,338.2 1174.0,301.0 1190.0,325.8 1206.0,325.8 1222.0,313.4 1238.0,325.8 1254.0,307.2 1270.0,332.0 1286.0,313.4 1302.0,307.2 1318.0,338.2 1334.0,294.9 1350.0,307.2 1366.0,313.4 1382.0,332.0 1398.0,338.2 1414.0,282.5 1430.0,350.5"/>
<circle cx="1430.0" cy="350.5" r="4.2" fill="#009E73"/>
<text class="tiny" x="870.0" y="420.0" text-anchor="start">6,144</text>
<text class="tiny" x="1430.0" y="420.0" text-anchor="end">221,184</text>
<text class="tiny" x="876.0" y="222.0" text-anchor="start">0.01</text>
<text class="tiny" x="876.0" y="394.0" text-anchor="start">0</text>
  <text class="label" x="110.0" y="515.0" text-anchor="start">C. Critic explained variance</text>
<line class="grid" x1="110.0" y1="535.0" x2="730.0" y2="535.0"/>
<line class="grid" x1="110.0" y1="575.0" x2="730.0" y2="575.0"/>
<line class="grid" x1="110.0" y1="615.0" x2="730.0" y2="615.0"/>
<line class="grid" x1="110.0" y1="655.0" x2="730.0" y2="655.0"/>
<line class="grid" x1="110.0" y1="695.0" x2="730.0" y2="695.0"/>
<line class="axis" x1="110.0" y1="695.0" x2="730.0" y2="695.0"/>
<line class="axis" x1="110.0" y1="535.0" x2="110.0" y2="695.0"/>
<polyline fill="none" stroke="#CC79A7" stroke-width="2.6" stroke-linecap="round" stroke-linejoin="round" points="110.0,695.0 127.7,688.3 145.4,685.4 163.1,684.9 180.9,679.5 198.6,680.3 216.3,675.8 234.0,672.9 251.7,672.5 269.4,668.0 287.1,658.0 304.9,656.1 322.6,650.8 340.3,636.3 358.0,649.9 375.7,636.0 393.4,654.3 411.1,650.8 428.9,626.2 446.6,631.8 464.3,642.3 482.0,613.3 499.7,608.0 517.4,641.5 535.1,616.6 552.9,608.1 570.6,602.0 588.3,614.7 606.0,535.0 623.7,579.7 641.4,559.9 659.1,576.2 676.9,557.2 694.6,584.2 712.3,578.4 730.0,598.1"/>
<circle cx="730.0" cy="598.1" r="4.2" fill="#CC79A7"/>
<text class="tiny" x="110.0" y="715.0" text-anchor="start">6,144</text>
<text class="tiny" x="730.0" y="715.0" text-anchor="end">221,184</text>
<text class="tiny" x="116.0" y="547.0" text-anchor="start">0.11</text>
<text class="tiny" x="116.0" y="689.0" text-anchor="start">-0.00402</text>
  <text class="label" x="870.0" y="515.0" text-anchor="start">D. Approximate KL</text>
<line class="grid" x1="870.0" y1="535.0" x2="1430.0" y2="535.0"/>
<line class="grid" x1="870.0" y1="575.0" x2="1430.0" y2="575.0"/>
<line class="grid" x1="870.0" y1="615.0" x2="1430.0" y2="615.0"/>
<line class="grid" x1="870.0" y1="655.0" x2="1430.0" y2="655.0"/>
<line class="grid" x1="870.0" y1="695.0" x2="1430.0" y2="695.0"/>
<line class="axis" x1="870.0" y1="695.0" x2="1430.0" y2="695.0"/>
<line class="axis" x1="870.0" y1="535.0" x2="870.0" y2="695.0"/>
<polyline fill="none" stroke="#D55E00" stroke-width="2.6" stroke-linecap="round" stroke-linejoin="round" points="870.0,535.0 886.0,561.7 902.0,667.7 918.0,658.8 934.0,684.0 950.0,688.8 966.0,674.4 982.0,655.2 998.0,664.3 1014.0,670.4 1030.0,678.6 1046.0,672.3 1062.0,679.8 1078.0,672.7 1094.0,682.6 1110.0,657.7 1126.0,681.2 1142.0,682.7 1158.0,675.8 1174.0,684.8 1190.0,670.2 1206.0,690.1 1222.0,682.0 1238.0,675.1 1254.0,695.0 1270.0,693.9 1286.0,678.7 1302.0,692.6 1318.0,683.8 1334.0,685.8 1350.0,684.3 1366.0,671.1 1382.0,693.4 1398.0,685.9 1414.0,687.5 1430.0,693.4"/>
<circle cx="1430.0" cy="693.4" r="4.2" fill="#D55E00"/>
<text class="tiny" x="870.0" y="715.0" text-anchor="start">6,144</text>
<text class="tiny" x="1430.0" y="715.0" text-anchor="end">221,184</text>
<text class="tiny" x="876.0" y="547.0" text-anchor="start">0.0124</text>
<text class="tiny" x="876.0" y="689.0" text-anchor="start">0.00024</text>
  <rect class="panel" x="110.0" y="735.0" width="1320.0" height="38.0" rx="4.0"/>
  <text class="body" x="135.0" y="760.0" text-anchor="start">final reward 0.2075 | speed 240 steps/s | device NVIDIA GeForce RTX 4090</text>

</svg>
