<svg xmlns="http://www.w3.org/2000/svg" width="1600" height="850" viewBox="0 0 1600 850">
  <defs>
    <marker id="arrowGray" markerWidth="9" markerHeight="9" refX="8" refY="4.5" orient="auto"><path d="M0 0 L9 4.5 L0 9 Z" fill="#7A869A"/></marker>
    <marker id="arrowBlue" markerWidth="9" markerHeight="9" refX="8" refY="4.5" orient="auto"><path d="M0 0 L9 4.5 L0 9 Z" fill="#0072B2"/></marker>
    <marker id="arrowGreen" markerWidth="9" markerHeight="9" refX="8" refY="4.5" orient="auto"><path d="M0 0 L9 4.5 L0 9 Z" fill="#009E73"/></marker>

    <style>
      text{font-family:Inter,Arial,Helvetica,sans-serif}
      .title{font-size:34px;font-weight:700;fill:#1B1F23}
      .subtitle{font-size:15px;font-weight:400;fill:#5B6472}
      .label{font-size:15px;font-weight:650;fill:#1B1F23}
      .body{font-size:13px;font-weight:400;fill:#5B6472}
      .small{font-size:11px;font-weight:400;fill:#5B6472}
      .tiny{font-size:9px;font-weight:500;fill:#5B6472}
      .panel{fill:#fff;stroke:#C9D1D9;stroke-width:1.2}
      .soft{fill:#F7F9FB;stroke:#C9D1D9;stroke-width:1}
      .grid{stroke:#E6EBF0;stroke-width:1}
      .axis{stroke:#1B1F23;stroke-width:1.1}
      .wire{fill:none;stroke:#7A869A;stroke-width:1.8;marker-end:url(#arrowGray)}
      .wireBlue{fill:none;stroke:#0072B2;stroke-width:2;marker-end:url(#arrowBlue)}
      .wireGreen{fill:none;stroke:#009E73;stroke-width:2;marker-end:url(#arrowGreen)}
      .dash{stroke-dasharray:6 6}
    </style>

  </defs>
  <rect width="1600" height="850" fill="#FFFFFF"/>
  <text class="title" x="64" y="58">Learned Strategy Event Metrics</text>
  <text class="subtitle" x="66" y="86">Evaluation over 64 episodes, comparing deterministic MAPPO, stochastic MAPPO and scripted rules baseline.</text>
<rect class="soft" x="58.0" y="120.0" width="1484.0" height="670.0" rx="10.0"/><text class="label" x="112.0" y="190.0" text-anchor="start">Normal hits</text><rect x="128.1" y="432.0" width="41.1" height="128.0" rx="3" fill="#0072B2"/>
<text class="tiny" x="148.7" y="424.0" text-anchor="middle">2</text>
<text class="tiny" x="148.7" y="578.0" text-anchor="middle">det</text>
<rect x="201.5" y="249.0" width="41.1" height="311.0" rx="3" fill="#CC79A7"/>
<text class="tiny" x="222.0" y="241.0" text-anchor="middle">4.86</text>
<text class="tiny" x="222.0" y="578.0" text-anchor="middle">stoch</text>
<rect x="274.8" y="240.0" width="41.1" height="320.0" rx="3" fill="#009E73"/>
<text class="tiny" x="295.3" y="232.0" text-anchor="middle">5</text>
<text class="tiny" x="295.3" y="578.0" text-anchor="middle">script</text><text class="label" x="397.0" y="190.0" text-anchor="start">Base wins</text><rect x="413.1" y="560.0" width="41.1" height="0.0" rx="3" fill="#0072B2"/>
<text class="tiny" x="433.7" y="552.0" text-anchor="middle">0.00</text>
<text class="tiny" x="433.7" y="578.0" text-anchor="middle">det</text>
<rect x="486.5" y="240.0" width="41.1" height="320.0" rx="3" fill="#CC79A7"/>
<text class="tiny" x="507.0" y="232.0" text-anchor="middle">0.41</text>
<text class="tiny" x="507.0" y="578.0" text-anchor="middle">stoch</text>
<rect x="559.8" y="560.0" width="41.1" height="0.0" rx="3" fill="#009E73"/>
<text class="tiny" x="580.3" y="552.0" text-anchor="middle">0.00</text>
<text class="tiny" x="580.3" y="578.0" text-anchor="middle">script</text><text class="label" x="682.0" y="190.0" text-anchor="start">Contacts</text><rect x="698.1" y="240.0" width="41.1" height="320.0" rx="3" fill="#0072B2"/>
<text class="tiny" x="718.7" y="232.0" text-anchor="middle">2</text>
<text class="tiny" x="718.7" y="578.0" text-anchor="middle">det</text>
<rect x="771.5" y="380.0" width="41.1" height="180.0" rx="3" fill="#CC79A7"/>
<text class="tiny" x="792.0" y="372.0" text-anchor="middle">1.12</text>
<text class="tiny" x="792.0" y="578.0" text-anchor="middle">stoch</text>
<rect x="844.8" y="560.0" width="41.1" height="0.0" rx="3" fill="#009E73"/>
<text class="tiny" x="865.3" y="552.0" text-anchor="middle">0.00</text>
<text class="tiny" x="865.3" y="578.0" text-anchor="middle">script</text><text class="label" x="967.0" y="190.0" text-anchor="start">Block steps</text><rect x="983.1" y="406.4" width="41.1" height="153.6" rx="3" fill="#0072B2"/>
<text class="tiny" x="1003.7" y="398.4" text-anchor="middle">264</text>
<text class="tiny" x="1003.7" y="578.0" text-anchor="middle">det</text>
<rect x="1056.5" y="431.3" width="41.1" height="128.7" rx="3" fill="#CC79A7"/>
<text class="tiny" x="1077.0" y="423.3" text-anchor="middle">221</text>
<text class="tiny" x="1077.0" y="578.0" text-anchor="middle">stoch</text>
<rect x="1129.8" y="240.0" width="41.1" height="320.0" rx="3" fill="#009E73"/>
<text class="tiny" x="1150.3" y="232.0" text-anchor="middle">550</text>
<text class="tiny" x="1150.3" y="578.0" text-anchor="middle">script</text><text class="label" x="1252.0" y="190.0" text-anchor="start">Rush steps</text><rect x="1268.1" y="502.7" width="41.1" height="57.3" rx="3" fill="#0072B2"/>
<text class="tiny" x="1288.7" y="494.7" text-anchor="middle">291</text>
<text class="tiny" x="1288.7" y="578.0" text-anchor="middle">det</text>
<rect x="1341.5" y="423.6" width="41.1" height="136.4" rx="3" fill="#CC79A7"/>
<text class="tiny" x="1362.0" y="415.6" text-anchor="middle">692</text>
<text class="tiny" x="1362.0" y="578.0" text-anchor="middle">stoch</text>
<rect x="1414.8" y="240.0" width="41.1" height="320.0" rx="3" fill="#009E73"/>
<text class="tiny" x="1435.3" y="232.0" text-anchor="middle">1.6k</text>
<text class="tiny" x="1435.3" y="578.0" text-anchor="middle">script</text><rect class="panel" x="120.0" y="650.0" width="1260.0" height="80.0" rx="6.0"/><text class="body" x="150.0" y="688.0" text-anchor="start">Stochastic MAPPO: blue win 40.6% | draw/timeout 59.4% | own-target penalties 0.0</text>
</svg>
