<svg xmlns="http://www.w3.org/2000/svg" width="1600" height="850" viewBox="0 0 1600 850">
  <defs>
    <marker id="arrowGray" markerWidth="9" markerHeight="9" refX="8" refY="4.5" orient="auto"><path d="M0 0 L9 4.5 L0 9 Z" fill="#7A869A"/></marker>
    <marker id="arrowBlue" markerWidth="9" markerHeight="9" refX="8" refY="4.5" orient="auto"><path d="M0 0 L9 4.5 L0 9 Z" fill="#0072B2"/></marker>
    <marker id="arrowGreen" markerWidth="9" markerHeight="9" refX="8" refY="4.5" orient="auto"><path d="M0 0 L9 4.5 L0 9 Z" fill="#009E73"/></marker>

    <style>
      text{font-family:Inter,Arial,Helvetica,sans-serif}
      .title{font-size:34px;font-weight:700;fill:#1B1F23}
      .subtitle{font-size:15px;font-weight:400;fill:#5B6472}
      .label{font-size:15px;font-weight:650;fill:#1B1F23}
      .body{font-size:13px;font-weight:400;fill:#5B6472}
      .small{font-size:11px;font-weight:400;fill:#5B6472}
      .tiny{font-size:9px;font-weight:500;fill:#5B6472}
      .panel{fill:#fff;stroke:#C9D1D9;stroke-width:1.2}
      .soft{fill:#F7F9FB;stroke:#C9D1D9;stroke-width:1}
      .grid{stroke:#E6EBF0;stroke-width:1}
      .axis{stroke:#1B1F23;stroke-width:1.1}
      .wire{fill:none;stroke:#7A869A;stroke-width:1.8;marker-end:url(#arrowGray)}
      .wireBlue{fill:none;stroke:#0072B2;stroke-width:2;marker-end:url(#arrowBlue)}
      .wireGreen{fill:none;stroke:#009E73;stroke-width:2;marker-end:url(#arrowGreen)}
      .dash{stroke-dasharray:6 6}
    </style>

  </defs>
  <rect width="1600" height="850" fill="#FFFFFF"/>
  <text class="title" x="64" y="58">Tactical Deployment Contract</text>
  <text class="subtitle" x="66" y="86">The actor selects high-level tactics; safety, navigation and shooting remain explicit deployable interfaces.</text>

  <rect class="soft" x="58.0" y="120.0" width="1484.0" height="670.0" rx="10.0"/>
  <rect class="panel" x="120.0" y="250.0" width="300.0" height="250.0" rx="6.0"/>
  <text class="label" x="150.0" y="290.0" text-anchor="start">Local observation [34]</text>
  <text class="body" x="150.0" y="330.0" text-anchor="start">pose, target flags</text>
<text class="body" x="150.0" y="352.0" text-anchor="start">sensor-fusion state</text>
<text class="body" x="150.0" y="374.0" text-anchor="start">opponent relation</text>
  <path class="wireBlue" d="M420.0 375.0 L560.0 375.0"/>
  <rect class="panel" x="560.0" y="220.0" width="360.0" height="310.0" rx="6.0"/>
  <text class="label" x="600.0" y="265.0" text-anchor="start">Dual tactical actors</text>
  <text class="body" x="600.0" y="310.0" text-anchor="start">yellow_expert residual</text>
<text class="body" x="600.0" y="332.0" text-anchor="start">blue_expert residual</text>
<text class="body" x="600.0" y="354.0" text-anchor="start">6-D action in [-1, 1]</text>
  <path class="wireBlue" d="M920.0 375.0 L1060.0 375.0"/>
  <rect class="panel" x="1060.0" y="250.0" width="330.0" height="250.0" rx="6.0"/>
  <text class="label" x="1090.0" y="290.0" text-anchor="start">ROS2 behavior contract</text>
  <text class="body" x="1090.0" y="330.0" text-anchor="start">Nav2 target pose</text>
<text class="body" x="1090.0" y="352.0" text-anchor="start">AprilTag align</text>
<text class="body" x="1090.0" y="374.0" text-anchor="start">shooter dwell gate</text>
  <path class="wire dash" d="M740 220 C790 135 980 135 1130 250"/>
  <text class="body" x="835.0" y="170.0" text-anchor="start">central critic [68] is training-only</text>
  <rect class="panel" x="260.0" y="610.0" width="1040.0" height="64.0" rx="6.0"/>
  <text class="body" x="295.0" y="650.0" text-anchor="start">Stochastic eval base wins / episode: 0.406; own-target penalties / episode: 0.0</text>

</svg>
