<svg xmlns="http://www.w3.org/2000/svg" width="1740" height="980" viewBox="0 0 1740 980">
  <defs>
    <style>
      .title{font:700 32px Arial,Inter,sans-serif;fill:#111827}
      .subtitle{font:400 16px Arial,Inter,sans-serif;fill:#64748B}
      .h{font:700 19px Arial,Inter,sans-serif;fill:#111827}
      .txt{font:400 15px Arial,Inter,sans-serif;fill:#334155}
      .small{font:400 12px Arial,Inter,sans-serif;fill:#475569}
      .tiny{font:400 10px Arial,Inter,sans-serif;fill:#64748B}
      .panel{fill:#F8FAFC;stroke:#CBD5E1;stroke-width:1.2;rx:8}
      .card{fill:#FFFFFF;stroke:#CBD5E1;stroke-width:1.0;rx:7}
      .grid{stroke:#E2E8F0;stroke-width:1}
      .axis{stroke:#475569;stroke-width:1.2}
    </style>
  </defs>
  <rect width="1740" height="980" fill="#FFFFFF"/>

  <text class="title" x="70" y="60">Object-Centric World-Model SAC Flow Training</text>
  <text class="subtitle" x="72" y="92">Flow actor + centralized twin-Q + auxiliary object dynamics model | 32 envs, 200,000 env steps</text>
  <rect class="panel" x="70" y="125" width="760" height="610"/>
  <text class="h" x="105" y="168">Reward and termination</text>
  
      <line class="grid" x1="120" y1="215.0" x2="740" y2="215.0"/><line class="grid" x1="120" y1="260.0" x2="740" y2="260.0"/><line class="grid" x1="120" y1="305.0" x2="740" y2="305.0"/><line class="grid" x1="120" y1="350.0" x2="740" y2="350.0"/><line class="grid" x1="120" y1="395.0" x2="740" y2="395.0"/>
      <line class="axis" x1="120" y1="395" x2="740" y2="395"/>
      <line class="axis" x1="120" y1="215" x2="120" y2="395"/>
      <polyline fill="none" stroke="#2563EB" stroke-width="3.2" stroke-linejoin="round" stroke-linecap="round" points="120.0,394.8 121.0,394.9 122.0,395.0 123.0,394.9 124.0,392.4 125.0,384.8 126.0,348.7 127.0,350.7 127.9,349.5 128.9,384.0 129.9,359.3 130.9,378.2 131.9,375.1 132.9,370.9 133.9,360.8 134.9,345.7 135.9,367.4 136.9,363.7 137.9,378.1 138.9,375.7 139.9,373.5 140.9,370.3 141.9,372.7 142.9,295.7 143.8,377.5 144.8,374.9 145.8,294.7 146.8,378.0 147.8,292.1 148.8,353.6 149.8,374.6 150.8,294.7 151.8,377.9 152.8,376.6 153.8,359.4 154.8,374.1 155.8,375.5 156.8,360.5 157.8,355.9 158.8,376.4 159.7,375.9 160.7,377.6 161.7,300.2 162.7,367.4 163.7,298.7 164.7,374.9 165.7,364.6 166.7,376.0 167.7,370.2 168.7,362.8 169.7,379.5 170.7,373.5 171.7,362.5 172.7,375.2 173.7,370.8 174.6,371.8 175.6,374.3 176.6,298.2 177.6,295.9 178.6,378.3 179.6,379.9 180.6,377.0 181.6,374.0 182.6,378.8 183.6,352.0 184.6,378.8 185.6,381.1 186.6,378.5 187.6,376.7 188.6,375.0 189.6,368.9 190.5,372.0 191.5,369.0 192.5,373.1 193.5,279.2 194.5,359.9 195.5,357.8 196.5,375.9 197.5,362.1 198.5,374.7 199.5,374.2 200.5,358.2 201.5,376.3 202.5,376.1 203.5,364.4 204.5,364.4 205.4,364.1 206.4,362.0 207.4,364.5 208.4,377.8 209.4,362.8 210.4,333.1 211.4,297.0 212.4,296.8 213.4,355.4 214.4,367.3 215.4,379.9 216.4,384.3 217.4,378.9 218.4,379.9 219.4,352.6 220.4,299.1 221.3,364.4 222.3,380.2 223.3,358.1 224.3,375.0 225.3,358.9 226.3,370.9 227.3,358.3 228.3,376.8 229.3,375.0 230.3,380.1 231.3,361.0 232.3,376.3 233.3,363.6 234.3,372.2 235.3,345.7 236.2,374.1 237.2,369.1 238.2,380.3 239.2,365.3 240.2,361.4 241.2,368.5 242.2,286.8 243.2,373.5 244.2,283.3 245.2,364.6 246.2,376.4 247.2,371.2 248.2,373.0 249.2,369.6 250.2,361.2 251.2,374.1 252.1,375.2 253.1,357.2 254.1,358.4 255.1,369.7 256.1,366.2 257.1,367.0 258.1,355.0 259.1,346.7 260.1,349.0 261.1,378.6 262.1,373.5 263.1,362.1 264.1,377.3 265.1,359.9 266.1,274.2 267.1,373.1 268.0,372.3 269.0,341.2 270.0,369.3 271.0,371.4 272.0,372.9 273.0,292.7 274.0,374.0 275.0,378.7 276.0,380.7 277.0,380.5 278.0,377.1 279.0,380.6 280.0,295.1 281.0,376.4 282.0,376.1 282.9,363.8 283.9,361.8 284.9,276.9 285.9,377.2 286.9,360.7 287.9,376.3 288.9,381.3 289.9,382.0 290.9,379.7 291.9,368.1 292.9,373.6 293.9,376.1 294.9,365.0 295.9,367.8 296.9,372.1 297.9,355.1 298.8,291.4 299.8,344.5 300.8,374.4 301.8,360.8 302.8,371.5 303.8,361.1 304.8,355.0 305.8,365.5 306.8,366.5 307.8,286.7 308.8,289.2 309.8,375.9 310.8,376.1 311.8,376.4 312.8,373.7 313.8,371.9 314.7,358.7 315.7,359.5 316.7,354.4 317.7,359.7 318.7,362.4 319.7,375.4 320.7,363.4 321.7,373.2 322.7,373.8 323.7,358.3 324.7,373.0 325.7,356.3 326.7,362.6 327.7,377.7 328.7,375.7 329.6,380.4 330.6,374.0 331.6,378.0 332.6,375.5 333.6,378.5 334.6,359.5 335.6,362.0 336.6,374.1 337.6,371.5 338.6,357.7 339.6,357.0 340.6,352.6 341.6,369.8 342.6,359.8 343.6,372.7 344.6,372.3 345.5,370.1 346.5,373.6 347.5,370.0 348.5,369.4 349.5,361.2 350.5,360.7 351.5,362.3 352.5,380.0 353.5,376.1 354.5,360.1 355.5,365.8 356.5,362.4 357.5,271.3 358.5,376.5 359.5,377.9 360.4,350.3 361.4,357.7 362.4,377.4 363.4,366.9 364.4,379.0 365.4,375.1 366.4,279.5 367.4,374.9 368.4,323.6 369.4,267.0 370.4,384.8 371.4,384.6 372.4,382.2 373.4,381.4 374.4,376.4 375.4,369.0 376.3,375.4 377.3,374.8 378.3,336.5 379.3,366.3 380.3,378.3 381.3,361.5 382.3,292.6 383.3,374.0 384.3,361.4 385.3,372.6 386.3,377.5 387.3,363.6 388.3,377.0 389.3,376.9 390.3,376.9 391.2,374.8 392.2,358.1 393.2,377.5 394.2,379.2 395.2,361.0 396.2,373.1 397.2,354.1 398.2,285.0 399.2,370.3 400.2,367.5 401.2,373.7 402.2,364.2 403.2,382.1 404.2,380.1 405.2,375.0 406.2,362.8 407.1,365.6 408.1,295.4 409.1,366.2 410.1,364.9 411.1,378.1 412.1,380.0 413.1,373.6 414.1,277.3 415.1,349.1 416.1,378.5 417.1,363.6 418.1,375.1 419.1,366.5 420.1,380.2 421.1,379.8 422.1,377.1 423.0,373.9 424.0,371.0 425.0,373.5 426.0,371.8 427.0,375.8 428.0,379.6 429.0,361.7 430.0,297.2 431.0,375.2 432.0,373.6 433.0,374.9 434.0,371.2 435.0,284.1 436.0,373.5 437.0,377.0 437.9,376.0 438.9,361.1 439.9,375.7 440.9,336.5 441.9,343.6 442.9,295.6 443.9,351.3 444.9,380.4 445.9,354.3 446.9,349.9 447.9,376.7 448.9,355.5 449.9,347.9 450.9,376.4 451.9,376.9 452.9,377.9 453.8,376.6 454.8,363.1 455.8,374.8 456.8,295.2 457.8,365.6 458.8,280.9 459.8,380.1 460.8,378.1 461.8,361.9 462.8,292.1 463.8,371.3 464.8,371.7 465.8,380.3 466.8,384.3 467.8,379.3 468.8,376.4 469.7,373.8 470.7,357.0 471.7,378.3 472.7,375.6 473.7,375.6 474.7,380.0 475.7,378.4 476.7,365.0 477.7,362.0 478.7,357.3 479.7,356.2 480.7,373.8 481.7,342.3 482.7,380.3 483.7,378.0 484.6,363.6 485.6,379.2 486.6,366.0 487.6,296.0 488.6,375.5 489.6,215.0 490.6,382.6 491.6,381.0 492.6,362.9 493.6,376.5 494.6,297.4 495.6,347.6 496.6,359.9 497.6,375.2 498.6,377.1 499.6,373.0 500.5,361.5 501.5,361.8 502.5,376.0 503.5,372.8 504.5,373.1 505.5,354.9 506.5,369.5 507.5,367.7 508.5,369.7 509.5,375.8 510.5,357.7 511.5,371.8 512.5,358.4 513.5,356.5 514.5,374.0 515.4,368.9 516.4,372.7 517.4,376.7 518.4,375.9 519.4,376.1 520.4,373.4 521.4,357.6 522.4,367.5 523.4,348.3 524.4,368.5 525.4,374.6 526.4,375.8 527.4,348.0 528.4,351.5 529.4,376.2 530.4,358.1 531.3,379.6 532.3,376.2 533.3,362.7 534.3,376.5 535.3,375.4 536.3,374.7 537.3,356.7 538.3,341.8 539.3,367.4 540.3,291.5 541.3,358.4 542.3,369.3 543.3,369.6 544.3,369.7 545.3,354.7 546.2,368.8 547.2,355.2 548.2,373.1 549.2,374.1 550.2,372.5 551.2,373.1 552.2,361.1 553.2,375.9 554.2,360.5 555.2,361.2 556.2,380.0 557.2,365.1 558.2,375.9 559.2,374.8 560.2,356.3 561.2,361.9 562.1,293.1 563.1,377.8 564.1,348.1 565.1,373.3 566.1,371.7 567.1,376.1 568.1,342.8 569.1,376.8 570.1,359.7 571.1,276.2 572.1,357.9 573.1,358.1 574.1,377.9 575.1,357.0 576.1,362.9 577.1,363.4 578.0,364.2 579.0,371.7 580.0,371.9 581.0,376.4 582.0,368.9 583.0,373.8 584.0,373.5 585.0,374.8 586.0,359.5 587.0,375.8 588.0,294.6 589.0,374.1 590.0,374.6 591.0,373.9 592.0,366.9 592.9,373.4 593.9,361.6 594.9,341.6 595.9,375.8 596.9,356.6 597.9,376.2 598.9,374.3 599.9,359.0 600.9,370.8 601.9,359.0 602.9,358.3 603.9,355.2 604.9,325.1 605.9,379.7 606.9,364.2 607.9,385.6 608.8,378.6 609.8,377.3 610.8,358.2 611.8,371.0 612.8,272.5 613.8,362.6 614.8,358.3 615.8,376.6 616.8,380.1 617.8,361.9 618.8,376.5 619.8,374.7 620.8,373.9 621.8,377.4 622.8,365.5 623.8,356.3 624.7,378.1 625.7,362.1 626.7,331.8 627.7,373.1 628.7,358.0 629.7,353.9 630.7,368.3 631.7,273.1 632.7,376.1 633.7,363.6 634.7,377.4 635.7,375.8 636.7,377.0 637.7,362.8 638.7,290.5 639.6,372.1 640.6,377.0 641.6,377.4 642.6,379.4 643.6,376.1 644.6,375.9 645.6,357.0 646.6,371.0 647.6,345.9 648.6,384.6 649.6,380.7 650.6,365.3 651.6,281.2 652.6,374.0 653.6,372.7 654.6,368.0 655.5,377.4 656.5,362.4 657.5,361.9 658.5,359.4 659.5,292.5 660.5,372.8 661.5,360.3 662.5,293.5 663.5,377.2 664.5,372.5 665.5,370.4 666.5,374.4 667.5,360.9 668.5,378.9 669.5,367.0 670.4,294.6 671.4,380.3 672.4,362.9 673.4,374.1 674.4,275.2 675.4,356.4 676.4,371.1 677.4,288.8 678.4,362.1 679.4,294.4 680.4,381.6 681.4,362.6 682.4,378.4 683.4,379.0 684.4,360.4 685.4,376.0 686.3,367.2 687.3,372.2 688.3,376.7 689.3,374.1 690.3,380.2 691.3,360.2 692.3,385.8 693.3,378.0 694.3,379.7 695.3,377.3 696.3,284.5 697.3,360.3 698.3,369.5 699.3,363.1 700.3,364.0 701.2,292.3 702.2,292.3 703.2,365.7 704.2,367.6 705.2,368.8 706.2,354.4 707.2,371.0 708.2,360.2 709.2,379.9 710.2,381.8 711.2,384.3 712.2,376.8 713.2,349.8 714.2,374.2 715.2,373.5 716.2,373.3 717.1,372.2 718.1,360.3 719.1,375.8 720.1,365.1 721.1,377.0 722.1,369.3 723.1,378.3 724.1,382.4 725.1,376.6 726.1,377.5 727.1,353.6 728.1,374.8 729.1,374.4 730.1,374.0 731.1,374.1 732.1,377.9 733.0,371.8 734.0,373.3 735.0,360.1 736.0,375.5 737.0,376.6 738.0,364.6 739.0,377.7 740.0,370.5"/>
      <text class="small" x="120" y="203">mean reward</text>
      <text class="tiny" x="128" y="229">1.89</text>
      <text class="tiny" x="128" y="387">-0.0137</text>
    
  
      <line class="grid" x1="120" y1="470.0" x2="740" y2="470.0"/><line class="grid" x1="120" y1="507.5" x2="740" y2="507.5"/><line class="grid" x1="120" y1="545.0" x2="740" y2="545.0"/><line class="grid" x1="120" y1="582.5" x2="740" y2="582.5"/><line class="grid" x1="120" y1="620.0" x2="740" y2="620.0"/>
      <line class="axis" x1="120" y1="620" x2="740" y2="620"/>
      <line class="axis" x1="120" y1="470" x2="120" y2="620"/>
      <polyline fill="none" stroke="#16A34A" stroke-width="3.2" stroke-linejoin="round" stroke-linecap="round" points="120.0,620.0 121.0,620.0 122.0,620.0 123.0,620.0 124.0,620.0 125.0,620.0 126.0,620.0 127.0,620.0 127.9,620.0 128.9,620.0 129.9,620.0 130.9,620.0 131.9,620.0 132.9,620.0 133.9,620.0 134.9,620.0 135.9,620.0 136.9,620.0 137.9,620.0 138.9,620.0 139.9,620.0 140.9,620.0 141.9,620.0 142.9,545.0 143.8,620.0 144.8,620.0 145.8,545.0 146.8,620.0 147.8,545.0 148.8,620.0 149.8,620.0 150.8,545.0 151.8,620.0 152.8,620.0 153.8,620.0 154.8,620.0 155.8,620.0 156.8,620.0 157.8,620.0 158.8,620.0 159.7,620.0 160.7,620.0 161.7,545.0 162.7,620.0 163.7,545.0 164.7,620.0 165.7,620.0 166.7,620.0 167.7,620.0 168.7,620.0 169.7,620.0 170.7,620.0 171.7,620.0 172.7,620.0 173.7,620.0 174.6,620.0 175.6,620.0 176.6,545.0 177.6,545.0 178.6,620.0 179.6,620.0 180.6,620.0 181.6,620.0 182.6,620.0 183.6,620.0 184.6,620.0 185.6,620.0 186.6,620.0 187.6,620.0 188.6,620.0 189.6,620.0 190.5,620.0 191.5,620.0 192.5,620.0 193.5,545.0 194.5,620.0 195.5,620.0 196.5,620.0 197.5,620.0 198.5,620.0 199.5,620.0 200.5,620.0 201.5,620.0 202.5,620.0 203.5,620.0 204.5,620.0 205.4,620.0 206.4,620.0 207.4,620.0 208.4,620.0 209.4,620.0 210.4,620.0 211.4,545.0 212.4,545.0 213.4,620.0 214.4,620.0 215.4,620.0 216.4,620.0 217.4,620.0 218.4,620.0 219.4,620.0 220.4,545.0 221.3,620.0 222.3,620.0 223.3,620.0 224.3,620.0 225.3,620.0 226.3,620.0 227.3,620.0 228.3,620.0 229.3,620.0 230.3,620.0 231.3,620.0 232.3,620.0 233.3,620.0 234.3,620.0 235.3,620.0 236.2,620.0 237.2,620.0 238.2,620.0 239.2,620.0 240.2,620.0 241.2,620.0 242.2,545.0 243.2,620.0 244.2,545.0 245.2,620.0 246.2,620.0 247.2,620.0 248.2,620.0 249.2,620.0 250.2,620.0 251.2,620.0 252.1,620.0 253.1,620.0 254.1,620.0 255.1,620.0 256.1,620.0 257.1,620.0 258.1,620.0 259.1,620.0 260.1,620.0 261.1,620.0 262.1,620.0 263.1,620.0 264.1,620.0 265.1,620.0 266.1,545.0 267.1,620.0 268.0,620.0 269.0,620.0 270.0,620.0 271.0,620.0 272.0,620.0 273.0,545.0 274.0,620.0 275.0,620.0 276.0,620.0 277.0,620.0 278.0,620.0 279.0,620.0 280.0,545.0 281.0,620.0 282.0,620.0 282.9,620.0 283.9,620.0 284.9,545.0 285.9,620.0 286.9,620.0 287.9,620.0 288.9,620.0 289.9,620.0 290.9,620.0 291.9,620.0 292.9,620.0 293.9,620.0 294.9,620.0 295.9,620.0 296.9,620.0 297.9,620.0 298.8,545.0 299.8,620.0 300.8,620.0 301.8,620.0 302.8,620.0 303.8,620.0 304.8,620.0 305.8,620.0 306.8,620.0 307.8,545.0 308.8,545.0 309.8,620.0 310.8,620.0 311.8,620.0 312.8,620.0 313.8,620.0 314.7,620.0 315.7,620.0 316.7,620.0 317.7,620.0 318.7,620.0 319.7,620.0 320.7,620.0 321.7,620.0 322.7,620.0 323.7,620.0 324.7,620.0 325.7,620.0 326.7,620.0 327.7,620.0 328.7,620.0 329.6,620.0 330.6,620.0 331.6,620.0 332.6,620.0 333.6,620.0 334.6,620.0 335.6,620.0 336.6,620.0 337.6,620.0 338.6,620.0 339.6,620.0 340.6,620.0 341.6,620.0 342.6,620.0 343.6,620.0 344.6,620.0 345.5,620.0 346.5,620.0 347.5,620.0 348.5,620.0 349.5,620.0 350.5,620.0 351.5,620.0 352.5,620.0 353.5,620.0 354.5,620.0 355.5,620.0 356.5,620.0 357.5,545.0 358.5,620.0 359.5,620.0 360.4,620.0 361.4,620.0 362.4,620.0 363.4,620.0 364.4,620.0 365.4,620.0 366.4,545.0 367.4,620.0 368.4,620.0 369.4,545.0 370.4,620.0 371.4,620.0 372.4,620.0 373.4,620.0 374.4,620.0 375.4,620.0 376.3,620.0 377.3,620.0 378.3,620.0 379.3,620.0 380.3,620.0 381.3,620.0 382.3,545.0 383.3,620.0 384.3,620.0 385.3,620.0 386.3,620.0 387.3,620.0 388.3,620.0 389.3,620.0 390.3,620.0 391.2,620.0 392.2,620.0 393.2,620.0 394.2,620.0 395.2,620.0 396.2,620.0 397.2,620.0 398.2,545.0 399.2,620.0 400.2,620.0 401.2,620.0 402.2,620.0 403.2,620.0 404.2,620.0 405.2,620.0 406.2,620.0 407.1,620.0 408.1,545.0 409.1,620.0 410.1,620.0 411.1,620.0 412.1,620.0 413.1,620.0 414.1,545.0 415.1,620.0 416.1,620.0 417.1,620.0 418.1,620.0 419.1,620.0 420.1,620.0 421.1,620.0 422.1,620.0 423.0,620.0 424.0,620.0 425.0,620.0 426.0,620.0 427.0,620.0 428.0,620.0 429.0,620.0 430.0,545.0 431.0,620.0 432.0,620.0 433.0,620.0 434.0,620.0 435.0,545.0 436.0,620.0 437.0,620.0 437.9,620.0 438.9,620.0 439.9,620.0 440.9,620.0 441.9,620.0 442.9,545.0 443.9,620.0 444.9,620.0 445.9,620.0 446.9,620.0 447.9,620.0 448.9,620.0 449.9,620.0 450.9,620.0 451.9,620.0 452.9,620.0 453.8,620.0 454.8,620.0 455.8,620.0 456.8,545.0 457.8,620.0 458.8,545.0 459.8,620.0 460.8,620.0 461.8,620.0 462.8,545.0 463.8,620.0 464.8,620.0 465.8,620.0 466.8,620.0 467.8,620.0 468.8,620.0 469.7,620.0 470.7,620.0 471.7,620.0 472.7,620.0 473.7,620.0 474.7,620.0 475.7,620.0 476.7,620.0 477.7,620.0 478.7,620.0 479.7,620.0 480.7,620.0 481.7,620.0 482.7,620.0 483.7,620.0 484.6,620.0 485.6,620.0 486.6,620.0 487.6,545.0 488.6,620.0 489.6,470.0 490.6,620.0 491.6,620.0 492.6,620.0 493.6,620.0 494.6,545.0 495.6,620.0 496.6,620.0 497.6,620.0 498.6,620.0 499.6,620.0 500.5,620.0 501.5,620.0 502.5,620.0 503.5,620.0 504.5,620.0 505.5,620.0 506.5,620.0 507.5,620.0 508.5,620.0 509.5,620.0 510.5,620.0 511.5,620.0 512.5,620.0 513.5,620.0 514.5,620.0 515.4,620.0 516.4,620.0 517.4,620.0 518.4,620.0 519.4,620.0 520.4,620.0 521.4,620.0 522.4,620.0 523.4,620.0 524.4,620.0 525.4,620.0 526.4,620.0 527.4,620.0 528.4,620.0 529.4,620.0 530.4,620.0 531.3,620.0 532.3,620.0 533.3,620.0 534.3,620.0 535.3,620.0 536.3,620.0 537.3,620.0 538.3,620.0 539.3,620.0 540.3,545.0 541.3,620.0 542.3,620.0 543.3,620.0 544.3,620.0 545.3,620.0 546.2,620.0 547.2,620.0 548.2,620.0 549.2,620.0 550.2,620.0 551.2,620.0 552.2,620.0 553.2,620.0 554.2,620.0 555.2,620.0 556.2,620.0 557.2,620.0 558.2,620.0 559.2,620.0 560.2,620.0 561.2,620.0 562.1,545.0 563.1,620.0 564.1,620.0 565.1,620.0 566.1,620.0 567.1,620.0 568.1,620.0 569.1,620.0 570.1,620.0 571.1,545.0 572.1,620.0 573.1,620.0 574.1,620.0 575.1,620.0 576.1,620.0 577.1,620.0 578.0,620.0 579.0,620.0 580.0,620.0 581.0,620.0 582.0,620.0 583.0,620.0 584.0,620.0 585.0,620.0 586.0,620.0 587.0,620.0 588.0,545.0 589.0,620.0 590.0,620.0 591.0,620.0 592.0,620.0 592.9,620.0 593.9,620.0 594.9,620.0 595.9,620.0 596.9,620.0 597.9,620.0 598.9,620.0 599.9,620.0 600.9,620.0 601.9,620.0 602.9,620.0 603.9,620.0 604.9,620.0 605.9,620.0 606.9,620.0 607.9,620.0 608.8,620.0 609.8,620.0 610.8,620.0 611.8,620.0 612.8,545.0 613.8,620.0 614.8,620.0 615.8,620.0 616.8,620.0 617.8,620.0 618.8,620.0 619.8,620.0 620.8,620.0 621.8,620.0 622.8,620.0 623.8,620.0 624.7,620.0 625.7,620.0 626.7,620.0 627.7,620.0 628.7,620.0 629.7,620.0 630.7,620.0 631.7,545.0 632.7,620.0 633.7,620.0 634.7,620.0 635.7,620.0 636.7,620.0 637.7,620.0 638.7,545.0 639.6,620.0 640.6,620.0 641.6,620.0 642.6,620.0 643.6,620.0 644.6,620.0 645.6,620.0 646.6,620.0 647.6,620.0 648.6,620.0 649.6,620.0 650.6,620.0 651.6,545.0 652.6,620.0 653.6,620.0 654.6,620.0 655.5,620.0 656.5,620.0 657.5,620.0 658.5,620.0 659.5,545.0 660.5,620.0 661.5,620.0 662.5,545.0 663.5,620.0 664.5,620.0 665.5,620.0 666.5,620.0 667.5,620.0 668.5,620.0 669.5,620.0 670.4,545.0 671.4,620.0 672.4,620.0 673.4,620.0 674.4,545.0 675.4,620.0 676.4,620.0 677.4,545.0 678.4,620.0 679.4,545.0 680.4,620.0 681.4,620.0 682.4,620.0 683.4,620.0 684.4,620.0 685.4,620.0 686.3,620.0 687.3,620.0 688.3,620.0 689.3,620.0 690.3,620.0 691.3,620.0 692.3,620.0 693.3,620.0 694.3,620.0 695.3,620.0 696.3,545.0 697.3,620.0 698.3,620.0 699.3,620.0 700.3,620.0 701.2,545.0 702.2,545.0 703.2,620.0 704.2,620.0 705.2,620.0 706.2,620.0 707.2,620.0 708.2,620.0 709.2,620.0 710.2,620.0 711.2,620.0 712.2,620.0 713.2,620.0 714.2,620.0 715.2,620.0 716.2,620.0 717.1,620.0 718.1,620.0 719.1,620.0 720.1,620.0 721.1,620.0 722.1,620.0 723.1,620.0 724.1,620.0 725.1,620.0 726.1,620.0 727.1,620.0 728.1,620.0 729.1,620.0 730.1,620.0 731.1,620.0 732.1,620.0 733.0,620.0 734.0,620.0 735.0,620.0 736.0,620.0 737.0,620.0 738.0,620.0 739.0,620.0 740.0,620.0"/>
      <text class="small" x="120" y="458">done rate</text>
      <text class="tiny" x="128" y="484">0.0625</text>
      <text class="tiny" x="128" y="612">0</text>
    
  <rect class="panel" x="880" y="125" width="790" height="610"/>
  <text class="h" x="915" y="168">Optimization diagnostics</text>
  
      <line class="grid" x1="930" y1="215.0" x2="1550" y2="215.0"/><line class="grid" x1="930" y1="252.5" x2="1550" y2="252.5"/><line class="grid" x1="930" y1="290.0" x2="1550" y2="290.0"/><line class="grid" x1="930" y1="327.5" x2="1550" y2="327.5"/><line class="grid" x1="930" y1="365.0" x2="1550" y2="365.0"/>
      <line class="axis" x1="930" y1="365" x2="1550" y2="365"/>
      <line class="axis" x1="930" y1="215" x2="930" y2="365"/>
      <polyline fill="none" stroke="#DC2626" stroke-width="3.2" stroke-linejoin="round" stroke-linecap="round" points="930.0,365.0 931.0,365.0 932.0,365.0 933.0,365.0 934.0,365.0 935.0,365.0 936.0,365.0 937.0,365.0 937.9,365.0 938.9,365.0 939.9,365.0 940.9,365.0 941.9,353.6 942.9,364.1 943.9,363.8 944.9,364.4 945.9,363.9 946.9,364.2 947.9,363.5 948.9,364.1 949.9,364.1 950.9,349.4 951.9,364.0 952.9,320.7 953.8,349.6 954.8,349.8 955.8,364.0 956.8,363.7 957.8,349.7 958.8,321.4 959.8,349.6 960.8,335.3 961.8,306.8 962.8,350.2 963.8,336.2 964.8,321.2 965.8,350.0 966.8,335.9 967.8,364.1 968.8,308.3 969.7,307.5 970.7,349.6 971.7,322.6 972.7,335.7 973.7,336.2 974.7,321.8 975.7,336.5 976.7,336.0 977.7,336.0 978.7,336.5 979.7,350.6 980.7,322.0 981.7,321.9 982.7,336.5 983.7,324.2 984.6,322.6 985.6,349.2 986.6,322.9 987.6,364.1 988.6,308.3 989.6,337.6 990.6,364.0 991.6,325.5 992.6,321.7 993.6,363.7 994.6,322.8 995.6,324.0 996.6,324.9 997.6,350.8 998.6,364.2 999.6,349.3 1000.5,313.1 1001.5,309.7 1002.5,291.4 1003.5,296.2 1004.5,280.4 1005.5,311.6 1006.5,325.6 1007.5,320.4 1008.5,300.5 1009.5,308.3 1010.5,324.8 1011.5,291.2 1012.5,320.9 1013.5,339.0 1014.5,336.7 1015.4,340.5 1016.4,341.6 1017.4,349.7 1018.4,322.4 1019.4,340.5 1020.4,306.4 1021.4,308.5 1022.4,338.5 1023.4,320.1 1024.4,292.1 1025.4,328.7 1026.4,295.8 1027.4,352.9 1028.4,283.5 1029.4,328.0 1030.4,337.5 1031.3,310.3 1032.3,348.1 1033.3,364.0 1034.3,283.6 1035.3,349.5 1036.3,327.0 1037.3,311.3 1038.3,307.1 1039.3,364.0 1040.3,337.9 1041.3,320.6 1042.3,318.1 1043.3,324.3 1044.3,336.9 1045.3,325.8 1046.2,307.3 1047.2,326.2 1048.2,340.0 1049.2,350.8 1050.2,311.2 1051.2,332.0 1052.2,319.7 1053.2,349.2 1054.2,291.0 1055.2,306.7 1056.2,289.1 1057.2,350.8 1058.2,324.8 1059.2,327.9 1060.2,354.0 1061.2,349.1 1062.1,308.3 1063.1,315.8 1064.1,318.4 1065.1,310.1 1066.1,316.5 1067.1,352.7 1068.1,347.0 1069.1,348.8 1070.1,332.7 1071.1,341.3 1072.1,293.3 1073.1,325.9 1074.1,261.9 1075.1,333.9 1076.1,291.9 1077.1,315.8 1078.0,319.3 1079.0,292.3 1080.0,275.8 1081.0,304.0 1082.0,314.8 1083.0,294.2 1084.0,311.5 1085.0,334.7 1086.0,336.0 1087.0,278.3 1088.0,331.2 1089.0,298.6 1090.0,363.8 1091.0,318.4 1092.0,363.8 1092.9,318.1 1093.9,267.2 1094.9,363.6 1095.9,307.0 1096.9,353.2 1097.9,329.3 1098.9,322.3 1099.9,351.5 1100.9,336.9 1101.9,334.1 1102.9,311.4 1103.9,336.4 1104.9,351.9 1105.9,320.2 1106.9,318.1 1107.9,348.6 1108.8,275.9 1109.8,330.3 1110.8,328.7 1111.8,336.2 1112.8,351.4 1113.8,308.5 1114.8,319.9 1115.8,308.9 1116.8,323.2 1117.8,286.4 1118.8,296.9 1119.8,345.3 1120.8,299.0 1121.8,281.7 1122.8,325.7 1123.8,300.2 1124.7,288.2 1125.7,335.6 1126.7,329.5 1127.7,301.9 1128.7,289.5 1129.7,287.2 1130.7,323.4 1131.7,268.3 1132.7,306.9 1133.7,300.6 1134.7,327.0 1135.7,350.1 1136.7,288.4 1137.7,324.0 1138.7,317.1 1139.6,294.9 1140.6,330.8 1141.6,332.5 1142.6,311.4 1143.6,319.0 1144.6,292.0 1145.6,242.1 1146.6,309.9 1147.6,302.2 1148.6,347.4 1149.6,362.3 1150.6,337.4 1151.6,340.5 1152.6,351.9 1153.6,336.1 1154.6,313.9 1155.5,225.3 1156.5,331.7 1157.5,341.0 1158.5,297.8 1159.5,363.3 1160.5,305.0 1161.5,331.4 1162.5,312.7 1163.5,325.3 1164.5,353.0 1165.5,326.3 1166.5,336.6 1167.5,347.6 1168.5,330.3 1169.5,310.5 1170.4,321.5 1171.4,271.7 1172.4,307.3 1173.4,328.4 1174.4,311.3 1175.4,351.5 1176.4,346.3 1177.4,350.5 1178.4,348.3 1179.4,310.0 1180.4,330.7 1181.4,280.0 1182.4,269.6 1183.4,317.7 1184.4,342.1 1185.4,324.2 1186.3,299.7 1187.3,287.4 1188.3,348.2 1189.3,277.3 1190.3,271.5 1191.3,361.9 1192.3,296.7 1193.3,310.0 1194.3,307.0 1195.3,290.5 1196.3,325.1 1197.3,320.7 1198.3,343.2 1199.3,329.1 1200.3,320.1 1201.2,362.5 1202.2,334.8 1203.2,298.0 1204.2,351.4 1205.2,300.5 1206.2,291.9 1207.2,341.6 1208.2,311.3 1209.2,338.8 1210.2,293.9 1211.2,351.3 1212.2,343.5 1213.2,311.1 1214.2,331.9 1215.2,346.3 1216.2,354.0 1217.1,353.1 1218.1,340.8 1219.1,338.9 1220.1,282.9 1221.1,352.8 1222.1,328.0 1223.1,258.2 1224.1,307.8 1225.1,315.3 1226.1,305.3 1227.1,312.0 1228.1,347.8 1229.1,350.6 1230.1,331.1 1231.1,336.0 1232.1,347.6 1233.0,330.4 1234.0,314.4 1235.0,353.0 1236.0,353.7 1237.0,298.2 1238.0,314.2 1239.0,308.4 1240.0,290.3 1241.0,294.3 1242.0,285.5 1243.0,302.8 1244.0,313.9 1245.0,324.1 1246.0,312.8 1247.0,362.1 1247.9,332.8 1248.9,349.9 1249.9,329.1 1250.9,307.8 1251.9,336.0 1252.9,331.1 1253.9,302.6 1254.9,300.1 1255.9,304.3 1256.9,347.9 1257.9,330.0 1258.9,290.9 1259.9,307.0 1260.9,276.0 1261.9,308.0 1262.9,339.9 1263.8,310.3 1264.8,322.0 1265.8,328.0 1266.8,304.9 1267.8,308.2 1268.8,303.5 1269.8,344.7 1270.8,286.5 1271.8,311.5 1272.8,297.0 1273.8,333.8 1274.8,317.1 1275.8,282.4 1276.8,348.4 1277.8,343.7 1278.8,293.4 1279.7,361.8 1280.7,286.7 1281.7,324.5 1282.7,348.6 1283.7,361.7 1284.7,319.3 1285.7,349.4 1286.7,322.0 1287.7,329.2 1288.7,321.4 1289.7,308.6 1290.7,333.1 1291.7,293.4 1292.7,338.5 1293.7,289.9 1294.6,328.3 1295.6,323.5 1296.6,281.8 1297.6,253.1 1298.6,348.4 1299.6,298.5 1300.6,259.6 1301.6,306.6 1302.6,339.5 1303.6,301.9 1304.6,290.5 1305.6,332.3 1306.6,320.0 1307.6,352.3 1308.6,344.2 1309.6,347.4 1310.5,328.4 1311.5,306.7 1312.5,304.6 1313.5,361.2 1314.5,289.9 1315.5,336.2 1316.5,338.3 1317.5,342.8 1318.5,361.5 1319.5,314.6 1320.5,297.6 1321.5,289.5 1322.5,304.3 1323.5,340.6 1324.5,359.5 1325.4,325.5 1326.4,310.7 1327.4,289.8 1328.4,315.5 1329.4,318.1 1330.4,281.8 1331.4,360.3 1332.4,306.0 1333.4,348.0 1334.4,301.5 1335.4,326.6 1336.4,301.0 1337.4,321.5 1338.4,311.2 1339.4,320.1 1340.4,345.7 1341.3,327.5 1342.3,294.8 1343.3,293.0 1344.3,349.4 1345.3,338.5 1346.3,316.2 1347.3,288.5 1348.3,274.1 1349.3,334.8 1350.3,281.0 1351.3,336.5 1352.3,338.7 1353.3,282.2 1354.3,322.9 1355.3,285.7 1356.2,314.9 1357.2,348.5 1358.2,344.5 1359.2,339.6 1360.2,265.3 1361.2,281.9 1362.2,359.7 1363.2,256.8 1364.2,249.7 1365.2,319.4 1366.2,339.1 1367.2,286.4 1368.2,342.4 1369.2,338.5 1370.2,315.8 1371.2,335.6 1372.1,340.1 1373.1,310.2 1374.1,318.1 1375.1,337.1 1376.1,326.2 1377.1,345.8 1378.1,322.5 1379.1,361.6 1380.1,328.9 1381.1,287.0 1382.1,299.0 1383.1,335.4 1384.1,304.2 1385.1,215.0 1386.1,275.0 1387.1,316.6 1388.0,298.3 1389.0,349.5 1390.0,297.4 1391.0,346.0 1392.0,274.4 1393.0,342.6 1394.0,317.4 1395.0,271.5 1396.0,322.1 1397.0,297.0 1398.0,331.4 1399.0,311.4 1400.0,311.0 1401.0,315.7 1402.0,360.3 1402.9,345.8 1403.9,303.8 1404.9,294.6 1405.9,321.0 1406.9,357.7 1407.9,314.4 1408.9,321.4 1409.9,360.0 1410.9,312.9 1411.9,348.1 1412.9,329.2 1413.9,248.2 1414.9,304.7 1415.9,315.3 1416.9,297.4 1417.9,315.3 1418.8,360.4 1419.8,358.9 1420.8,338.8 1421.8,340.4 1422.8,304.8 1423.8,285.8 1424.8,274.7 1425.8,287.1 1426.8,332.9 1427.8,347.6 1428.8,332.2 1429.8,349.0 1430.8,313.7 1431.8,338.3 1432.8,309.4 1433.8,264.3 1434.7,271.2 1435.7,318.2 1436.7,351.9 1437.7,325.6 1438.7,260.6 1439.7,298.5 1440.7,315.1 1441.7,314.7 1442.7,331.8 1443.7,335.4 1444.7,289.5 1445.7,282.4 1446.7,359.8 1447.7,329.4 1448.7,256.5 1449.6,332.4 1450.6,312.1 1451.6,311.6 1452.6,296.1 1453.6,328.7 1454.6,357.5 1455.6,320.3 1456.6,317.9 1457.6,331.5 1458.6,250.9 1459.6,341.2 1460.6,340.4 1461.6,306.0 1462.6,325.3 1463.6,331.0 1464.6,302.9 1465.5,333.8 1466.5,359.0 1467.5,292.9 1468.5,345.7 1469.5,324.3 1470.5,329.7 1471.5,320.6 1472.5,295.6 1473.5,334.7 1474.5,325.0 1475.5,332.8 1476.5,350.8 1477.5,337.4 1478.5,320.5 1479.5,350.8 1480.4,336.0 1481.4,361.0 1482.4,331.5 1483.4,320.4 1484.4,317.3 1485.4,299.5 1486.4,331.4 1487.4,248.0 1488.4,317.6 1489.4,337.9 1490.4,340.0 1491.4,298.4 1492.4,350.9 1493.4,292.3 1494.4,358.9 1495.4,303.8 1496.3,335.5 1497.3,286.0 1498.3,342.8 1499.3,292.9 1500.3,305.5 1501.3,297.0 1502.3,286.6 1503.3,270.2 1504.3,302.8 1505.3,315.2 1506.3,340.8 1507.3,302.5 1508.3,341.0 1509.3,336.8 1510.3,309.6 1511.2,331.7 1512.2,287.7 1513.2,335.7 1514.2,314.0 1515.2,334.7 1516.2,325.5 1517.2,313.7 1518.2,361.1 1519.2,318.8 1520.2,338.5 1521.2,314.7 1522.2,332.6 1523.2,240.7 1524.2,294.2 1525.2,311.1 1526.2,326.9 1527.1,328.5 1528.1,330.3 1529.1,360.0 1530.1,290.4 1531.1,336.0 1532.1,303.4 1533.1,340.4 1534.1,320.3 1535.1,315.1 1536.1,325.5 1537.1,354.8 1538.1,316.0 1539.1,305.0 1540.1,337.0 1541.1,333.9 1542.1,340.0 1543.0,300.0 1544.0,241.1 1545.0,340.3 1546.0,323.8 1547.0,255.5 1548.0,343.4 1549.0,306.7 1550.0,272.8"/>
      <text class="small" x="930" y="203">critic loss</text>
      <text class="tiny" x="938" y="229">477</text>
      <text class="tiny" x="938" y="357">0</text>
    
  
      <line class="grid" x1="930" y1="455.0" x2="1550" y2="455.0"/><line class="grid" x1="930" y1="492.5" x2="1550" y2="492.5"/><line class="grid" x1="930" y1="530.0" x2="1550" y2="530.0"/><line class="grid" x1="930" y1="567.5" x2="1550" y2="567.5"/><line class="grid" x1="930" y1="605.0" x2="1550" y2="605.0"/>
      <line class="axis" x1="930" y1="605" x2="1550" y2="605"/>
      <line class="axis" x1="930" y1="455" x2="930" y2="605"/>
      <polyline fill="none" stroke="#7C3AED" stroke-width="3.2" stroke-linejoin="round" stroke-linecap="round" points="930.0,455.0 931.0,455.0 932.0,455.0 933.0,455.0 934.0,455.0 935.0,455.0 936.0,455.0 937.0,455.0 937.9,455.0 938.9,455.0 939.9,455.0 940.9,455.0 941.9,460.4 942.9,466.1 943.9,466.2 944.9,468.2 945.9,469.0 946.9,469.9 947.9,470.8 948.9,471.6 949.9,472.4 950.9,473.3 951.9,474.0 952.9,475.0 953.8,476.0 954.8,476.9 955.8,477.7 956.8,478.6 957.8,479.6 958.8,480.7 959.8,481.6 960.8,482.4 961.8,483.4 962.8,484.5 963.8,485.6 964.8,486.4 965.8,487.4 966.8,488.5 967.8,489.7 968.8,490.6 969.7,491.0 970.7,492.5 971.7,493.5 972.7,494.4 973.7,495.2 974.7,496.3 975.7,497.2 976.7,498.2 977.7,499.1 978.7,500.3 979.7,501.2 980.7,502.3 981.7,503.0 982.7,504.2 983.7,505.0 984.6,505.7 985.6,506.7 986.6,507.5 987.6,508.6 988.6,509.2 989.6,510.0 990.6,511.2 991.6,511.7 992.6,512.8 993.6,514.1 994.6,514.8 995.6,515.4 996.6,516.4 997.6,517.1 998.6,518.2 999.6,519.4 1000.5,519.9 1001.5,520.1 1002.5,521.4 1003.5,522.4 1004.5,522.8 1005.5,523.8 1006.5,524.8 1007.5,525.3 1008.5,526.2 1009.5,527.1 1010.5,527.5 1011.5,528.7 1012.5,529.3 1013.5,529.8 1014.5,530.7 1015.4,531.6 1016.4,532.6 1017.4,533.0 1018.4,533.6 1019.4,534.5 1020.4,534.7 1021.4,535.4 1022.4,536.2 1023.4,537.4 1024.4,537.4 1025.4,538.1 1026.4,539.2 1027.4,540.2 1028.4,540.9 1029.4,540.7 1030.4,541.9 1031.3,542.2 1032.3,543.2 1033.3,543.7 1034.3,543.7 1035.3,544.9 1036.3,545.6 1037.3,546.2 1038.3,546.8 1039.3,547.4 1040.3,548.5 1041.3,548.9 1042.3,549.6 1043.3,549.4 1044.3,550.1 1045.3,550.7 1046.2,552.0 1047.2,552.2 1048.2,552.1 1049.2,553.7 1050.2,554.6 1051.2,554.5 1052.2,555.2 1053.2,556.1 1054.2,556.0 1055.2,557.6 1056.2,556.9 1057.2,557.8 1058.2,558.1 1059.2,559.2 1060.2,559.5 1061.2,560.6 1062.1,560.2 1063.1,560.8 1064.1,561.9 1065.1,560.8 1066.1,561.9 1067.1,562.0 1068.1,563.6 1069.1,564.7 1070.1,564.0 1071.1,564.3 1072.1,564.9 1073.1,565.6 1074.1,565.9 1075.1,567.1 1076.1,566.5 1077.1,566.8 1078.0,568.3 1079.0,568.0 1080.0,568.8 1081.0,569.1 1082.0,569.1 1083.0,569.8 1084.0,570.4 1085.0,570.5 1086.0,572.2 1087.0,572.0 1088.0,571.9 1089.0,572.0 1090.0,574.1 1091.0,572.9 1092.0,574.7 1092.9,574.4 1093.9,574.1 1094.9,574.8 1095.9,574.7 1096.9,576.0 1097.9,576.1 1098.9,576.7 1099.9,576.9 1100.9,577.1 1101.9,577.9 1102.9,577.4 1103.9,578.4 1104.9,579.0 1105.9,578.5 1106.9,579.1 1107.9,579.0 1108.8,579.9 1109.8,580.6 1110.8,580.7 1111.8,580.2 1112.8,582.3 1113.8,581.5 1114.8,582.2 1115.8,581.7 1116.8,582.3 1117.8,583.8 1118.8,582.7 1119.8,583.6 1120.8,583.2 1121.8,583.4 1122.8,584.6 1123.8,584.3 1124.7,585.1 1125.7,584.0 1126.7,585.7 1127.7,586.2 1128.7,586.0 1129.7,586.6 1130.7,586.4 1131.7,586.2 1132.7,587.2 1133.7,587.5 1134.7,587.7 1135.7,587.8 1136.7,587.4 1137.7,587.1 1138.7,588.8 1139.6,588.9 1140.6,588.9 1141.6,588.6 1142.6,589.3 1143.6,589.6 1144.6,589.7 1145.6,589.6 1146.6,590.2 1147.6,590.1 1148.6,590.9 1149.6,591.8 1150.6,591.5 1151.6,590.3 1152.6,591.2 1153.6,592.0 1154.6,592.4 1155.5,592.0 1156.5,593.4 1157.5,592.2 1158.5,592.2 1159.5,594.0 1160.5,594.0 1161.5,593.6 1162.5,593.7 1163.5,593.9 1164.5,594.5 1165.5,593.4 1166.5,593.8 1167.5,594.0 1168.5,594.4 1169.5,594.6 1170.4,595.4 1171.4,594.4 1172.4,593.7 1173.4,595.4 1174.4,595.3 1175.4,596.7 1176.4,596.3 1177.4,597.2 1178.4,596.6 1179.4,597.0 1180.4,596.5 1181.4,596.7 1182.4,597.1 1183.4,597.4 1184.4,597.8 1185.4,596.7 1186.3,596.9 1187.3,598.8 1188.3,597.9 1189.3,597.7 1190.3,597.5 1191.3,597.4 1192.3,598.5 1193.3,597.7 1194.3,599.1 1195.3,597.2 1196.3,598.8 1197.3,599.6 1198.3,599.2 1199.3,599.3 1200.3,599.2 1201.2,599.3 1202.2,599.7 1203.2,600.3 1204.2,599.6 1205.2,599.0 1206.2,598.9 1207.2,601.0 1208.2,600.1 1209.2,600.4 1210.2,600.4 1211.2,600.4 1212.2,601.6 1213.2,601.4 1214.2,600.5 1215.2,600.4 1216.2,600.2 1217.1,600.0 1218.1,599.3 1219.1,600.8 1220.1,600.3 1221.1,600.6 1222.1,601.7 1223.1,601.7 1224.1,601.5 1225.1,602.0 1226.1,601.5 1227.1,603.2 1228.1,602.3 1229.1,601.8 1230.1,603.7 1231.1,603.3 1232.1,602.6 1233.0,601.7 1234.0,601.8 1235.0,604.0 1236.0,602.5 1237.0,602.3 1238.0,602.0 1239.0,602.7 1240.0,602.4 1241.0,602.2 1242.0,602.8 1243.0,601.9 1244.0,602.8 1245.0,602.7 1246.0,603.0 1247.0,603.3 1247.9,602.9 1248.9,603.3 1249.9,603.0 1250.9,602.7 1251.9,602.5 1252.9,603.4 1253.9,602.8 1254.9,603.1 1255.9,602.7 1256.9,602.6 1257.9,603.6 1258.9,603.4 1259.9,603.2 1260.9,603.3 1261.9,602.5 1262.9,603.8 1263.8,603.5 1264.8,603.3 1265.8,602.8 1266.8,604.0 1267.8,604.4 1268.8,605.0 1269.8,604.1 1270.8,602.5 1271.8,603.5 1272.8,602.8 1273.8,601.5 1274.8,603.0 1275.8,602.9 1276.8,603.7 1277.8,604.0 1278.8,603.1 1279.7,604.4 1280.7,602.5 1281.7,602.3 1282.7,603.3 1283.7,603.7 1284.7,602.3 1285.7,603.0 1286.7,603.1 1287.7,603.1 1288.7,603.2 1289.7,602.5 1290.7,603.8 1291.7,603.6 1292.7,601.6 1293.7,603.0 1294.6,603.2 1295.6,601.9 1296.6,604.6 1297.6,603.0 1298.6,603.0 1299.6,602.7 1300.6,603.6 1301.6,602.0 1302.6,603.8 1303.6,603.3 1304.6,602.4 1305.6,602.1 1306.6,602.2 1307.6,602.6 1308.6,603.8 1309.6,602.4 1310.5,602.8 1311.5,603.3 1312.5,602.7 1313.5,603.4 1314.5,602.8 1315.5,603.6 1316.5,601.2 1317.5,603.1 1318.5,603.2 1319.5,602.6 1320.5,603.5 1321.5,601.8 1322.5,602.2 1323.5,602.6 1324.5,601.4 1325.4,601.2 1326.4,601.8 1327.4,602.0 1328.4,601.9 1329.4,601.6 1330.4,602.1 1331.4,601.9 1332.4,601.5 1333.4,601.6 1334.4,601.1 1335.4,601.4 1336.4,600.7 1337.4,602.2 1338.4,601.8 1339.4,601.6 1340.4,599.9 1341.3,602.5 1342.3,601.6 1343.3,600.5 1344.3,602.1 1345.3,601.6 1346.3,601.3 1347.3,601.1 1348.3,599.8 1349.3,599.7 1350.3,600.5 1351.3,599.4 1352.3,600.9 1353.3,601.2 1354.3,599.4 1355.3,598.8 1356.2,598.9 1357.2,600.5 1358.2,599.7 1359.2,601.2 1360.2,600.4 1361.2,598.5 1362.2,600.1 1363.2,598.6 1364.2,600.4 1365.2,600.0 1366.2,600.0 1367.2,599.1 1368.2,598.9 1369.2,599.9 1370.2,599.6 1371.2,599.5 1372.1,599.9 1373.1,600.7 1374.1,600.5 1375.1,599.5 1376.1,599.6 1377.1,599.6 1378.1,598.1 1379.1,598.6 1380.1,600.4 1381.1,598.5 1382.1,599.7 1383.1,598.7 1384.1,598.7 1385.1,599.3 1386.1,598.5 1387.1,598.7 1388.0,598.1 1389.0,598.0 1390.0,598.9 1391.0,598.3 1392.0,598.3 1393.0,598.7 1394.0,597.5 1395.0,597.9 1396.0,598.1 1397.0,597.8 1398.0,598.2 1399.0,597.3 1400.0,595.1 1401.0,596.9 1402.0,598.1 1402.9,596.7 1403.9,596.5 1404.9,597.4 1405.9,595.7 1406.9,595.7 1407.9,596.0 1408.9,596.2 1409.9,597.2 1410.9,595.1 1411.9,595.5 1412.9,597.0 1413.9,594.4 1414.9,595.5 1415.9,595.9 1416.9,595.8 1417.9,595.2 1418.8,595.3 1419.8,594.5 1420.8,595.8 1421.8,596.8 1422.8,596.8 1423.8,594.4 1424.8,595.2 1425.8,595.5 1426.8,595.5 1427.8,594.3 1428.8,594.3 1429.8,594.8 1430.8,594.3 1431.8,594.2 1432.8,594.0 1433.8,594.4 1434.7,595.0 1435.7,593.5 1436.7,594.7 1437.7,592.8 1438.7,593.8 1439.7,592.9 1440.7,593.3 1441.7,593.5 1442.7,592.6 1443.7,594.1 1444.7,594.1 1445.7,593.2 1446.7,593.7 1447.7,593.4 1448.7,592.3 1449.6,592.0 1450.6,592.7 1451.6,592.3 1452.6,591.8 1453.6,591.3 1454.6,593.2 1455.6,593.9 1456.6,592.2 1457.6,591.6 1458.6,592.5 1459.6,592.2 1460.6,592.3 1461.6,592.5 1462.6,592.3 1463.6,590.2 1464.6,592.0 1465.5,592.5 1466.5,592.4 1467.5,593.3 1468.5,593.1 1469.5,591.3 1470.5,590.8 1471.5,591.0 1472.5,590.7 1473.5,590.0 1474.5,590.8 1475.5,590.5 1476.5,590.9 1477.5,589.1 1478.5,590.1 1479.5,590.5 1480.4,590.4 1481.4,590.7 1482.4,590.5 1483.4,590.2 1484.4,586.9 1485.4,588.1 1486.4,589.2 1487.4,588.4 1488.4,588.2 1489.4,589.8 1490.4,589.5 1491.4,589.8 1492.4,588.9 1493.4,587.4 1494.4,589.1 1495.4,587.2 1496.3,588.5 1497.3,586.1 1498.3,587.9 1499.3,587.9 1500.3,588.5 1501.3,587.6 1502.3,586.6 1503.3,587.0 1504.3,587.3 1505.3,588.1 1506.3,586.9 1507.3,586.2 1508.3,587.5 1509.3,586.5 1510.3,587.0 1511.2,587.1 1512.2,587.4 1513.2,589.4 1514.2,586.8 1515.2,586.9 1516.2,586.2 1517.2,585.8 1518.2,586.5 1519.2,586.7 1520.2,586.4 1521.2,585.3 1522.2,587.1 1523.2,586.0 1524.2,584.6 1525.2,586.1 1526.2,585.9 1527.1,584.6 1528.1,587.0 1529.1,584.8 1530.1,586.1 1531.1,585.5 1532.1,585.2 1533.1,584.9 1534.1,584.1 1535.1,583.2 1536.1,584.1 1537.1,584.5 1538.1,583.6 1539.1,584.5 1540.1,583.2 1541.1,584.2 1542.1,583.4 1543.0,583.5 1544.0,584.2 1545.0,583.2 1546.0,583.3 1547.0,583.4 1548.0,583.9 1549.0,583.0 1550.0,581.9"/>
      <text class="small" x="930" y="443">actor loss</text>
      <text class="tiny" x="938" y="469">0</text>
      <text class="tiny" x="938" y="597">-119</text>
    
  <rect class="card" x="930" y="635" width="610" height="58"/>
  <text class="txt" x="952" y="670">final reward 0.2459 | alpha 0.027 | throughput 52.0 steps/s</text>
  <rect class="panel" x="70" y="775" width="1600" height="145"/>
  <text class="h" x="105" y="818">Experiment contract</text>
  <text class="txt" x="105" y="852">actor_mode=dual | policy_mode=residual_expert | residual_scale=0.04 | world_model_coef=0.25</text>
  <text class="txt" x="105" y="884">Object state dimension 165 encodes robots, targets, armor blockers and pushable boxes.</text>

</svg>
